  0
SECTION
  2
HEADER
  9
$ACADVER
  1
AC1014
  9
$HANDSEED
  5
FFFF
  9
$MEASUREMENT
 70
     1
  0
ENDSEC
  0
SECTION
  2
TABLES
  0
TABLE
  2
VPORT
  5
8
330
0
100
AcDbSymbolTable
 70
     4
  0
VPORT
  5
2E
330
8
100
AcDbSymbolTableRecord
100
AcDbViewportTableRecord
  2
*ACTIVE
 70
     0
 10
0.0
 20
0.0
 11
1.0
 21
1.0
 12
210.0
 22
148.5
 13
0.0
 23
0.0
 14
10.0
 24
10.0
 15
10.0
 25
10.0
 16
0.0
 26
0.0
 36
1.0
 17
0.0
 27
0.0
 37
0.0
 40
341.0
 41
1.24
 42
50.0
 43
0.0
 44
0.0
 50
0.0
 51
0.0
 71
     0
 72
   100
 73
     1
 74
     3
 75
     0
 76
     0
 77
     0
 78
     0
  0
ENDTAB
  0
TABLE
  2
LTYPE
  5
5
330
0
100
AcDbSymbolTable
 70
     1
  0
LTYPE
  5
14
330
5
100
AcDbSymbolTableRecord
100
AcDbLinetypeTableRecord
  2
BYBLOCK
 70
     0
  3

 72
    65
 73
     0
 40
0.0
  0
LTYPE
  5
15
330
5
100
AcDbSymbolTableRecord
100
AcDbLinetypeTableRecord
  2
BYLAYER
 70
     0
  3

 72
    65
 73
     0
 40
0.0
  0
LTYPE
  5
16
330
5
100
AcDbSymbolTableRecord
100
AcDbLinetypeTableRecord
  2
CONTINUOUS
 70
     0
  3
Solid line
 72
    65
 73
     0
 40
0.0
  0
ENDTAB
  0
TABLE
  2
LAYER
  5
2
100
AcDbSymbolTable
 70
1
  0
LAYER
  5
50
100
AcDbSymbolTableRecord
100
AcDbLayerTableRecord
  2
0
 70
0
  6
CONTINUOUS
  0
ENDTAB
  0
TABLE
  2
STYLE
  5
3
330
0
100
AcDbSymbolTable
 70
     1
  0
STYLE
  5
11
330
3
100
AcDbSymbolTableRecord
100
AcDbTextStyleTableRecord
  2
STANDARD
 70
     0
 40
0.0
 41
1.0
 50
0.0
 71
     0
 42
2.5
  3
txt
  4

  0
ENDTAB
  0
TABLE
  2
VIEW
  5
6
330
0
100
AcDbSymbolTable
 70
     0
  0
ENDTAB
  0
TABLE
  2
UCS
  5
7
330
0
100
AcDbSymbolTable
 70
     0
  0
ENDTAB
  0
TABLE
  2
APPID
  5
9
330
0
100
AcDbSymbolTable
 70
     2
  0
APPID
  5
12
330
9
100
AcDbSymbolTableRecord
100
AcDbRegAppTableRecord
  2
ACAD
 70
     0
  0
ENDTAB
  0
TABLE
  2
DIMSTYLE
  5
A
330
0
100
AcDbSymbolTable
 70
     1
  0
DIMSTYLE
105
27
330
A
100
AcDbSymbolTableRecord
100
AcDbDimStyleTableRecord
  2
ISO-25
 70
     0
  3

  4

  5

  6

  7

 40
1.0
 41
2.5
 42
0.625
 43
3.75
 44
1.25
 45
0.0
 46
0.0
 47
0.0
 48
0.0
140
2.5
141
2.5
142
0.0
143
0.03937007874016
144
1.0
145
0.0
146
1.0
147
0.625
 71
     0
 72
     0
 73
     0
 74
     0
 75
     0
 76
     0
 77
     1
 78
     8
170
     0
171
     3
172
     1
173
     0
174
     0
175
     0
176
     0
177
     0
178
     0
270
     2
271
     2
272
     2
273
     2
274
     3
340
11
275
     0
280
     0
281
     0
282
     0
283
     0
284
     8
285
     0
286
     0
287
     3
288
     0
  0
ENDTAB
  0
TABLE
  2
BLOCK_RECORD
  5
1
330
0
100
AcDbSymbolTable
 70
     1
  0
BLOCK_RECORD
  5
1F
330
1
100
AcDbSymbolTableRecord
100
AcDbBlockTableRecord
  2
*MODEL_SPACE
  0
BLOCK_RECORD
  5
1B
330
1
100
AcDbSymbolTableRecord
100
AcDbBlockTableRecord
  2
*PAPER_SPACE
  0
ENDTAB
  0
ENDSEC
  0
SECTION
  2
BLOCKS
  0
BLOCK
  5
20
330
1F
100
AcDbEntity
  8
0
100
AcDbBlockBegin
  2
*MODEL_SPACE
 70
     0
 10
0.0
 20
0.0
 30
0.0
  3
*MODEL_SPACE
  1

  0
ENDBLK
  5
21
330
1F
100
AcDbEntity
  8
0
100
AcDbBlockEnd
  0
BLOCK
  5
1C
330
1B
100
AcDbEntity
 67
     1
  8
0
100
AcDbBlockBegin
  2
*PAPER_SPACE
  1

  0
ENDBLK
  5
1D
330
1B
100
AcDbEntity
 67
     1
  8
0
100
AcDbBlockEnd
  0
ENDSEC
  0
SECTION
  2
ENTITIES
  0
SPLINE
  5
100
100
AcDbEntity
  8
0
 62
7
100
AcDbSpline
 70
8
 71
3
 72
8
 73
4
 74
0
 40
0
 40
0
 40
0
 40
0
 40
1
 40
1
 40
1
 40
1
 10
154.237500
 20
136.567500
 30
0.0
 10
143.492800
 20
136.567500
 30
0.0
 10
134.782500
 20
127.857200
 30
0.0
 10
134.782500
 20
117.112500
 30
0.0
  0
SPLINE
  5
101
100
AcDbEntity
  8
0
 62
7
100
AcDbSpline
 70
8
 71
3
 72
8
 73
4
 74
0
 40
0
 40
0
 40
0
 40
0
 40
1
 40
1
 40
1
 40
1
 10
134.782500
 20
117.112500
 30
0.0
 10
134.782500
 20
106.367800
 30
0.0
 10
143.492800
 20
97.657500
 30
0.0
 10
154.237500
 20
97.657500
 30
0.0
  0
SPLINE
  5
102
100
AcDbEntity
  8
0
 62
7
100
AcDbSpline
 70
8
 71
3
 72
8
 73
4
 74
0
 40
0
 40
0
 40
0
 40
0
 40
1
 40
1
 40
1
 40
1
 10
154.237500
 20
97.657500
 30
0.0
 10
164.982200
 20
97.657500
 30
0.0
 10
173.692500
 20
106.367800
 30
0.0
 10
173.692500
 20
117.112500
 30
0.0
  0
SPLINE
  5
103
100
AcDbEntity
  8
0
 62
7
100
AcDbSpline
 70
8
 71
3
 72
8
 73
4
 74
0
 40
0
 40
0
 40
0
 40
0
 40
1
 40
1
 40
1
 40
1
 10
173.692500
 20
117.112500
 30
0.0
 10
173.692500
 20
122.272287
 30
0.0
 10
171.642783
 20
127.220742
 30
0.0
 10
167.994262
 20
130.869262
 30
0.0
  0
SPLINE
  5
104
100
AcDbEntity
  8
0
 62
7
100
AcDbSpline
 70
8
 71
3
 72
8
 73
4
 74
0
 40
0
 40
0
 40
0
 40
0
 40
1
 40
1
 40
1
 40
1
 10
167.994262
 20
130.869262
 30
0.0
 10
164.345742
 20
134.517783
 30
0.0
 10
159.397287
 20
136.567500
 30
0.0
 10
154.237500
 20
136.567500
 30
0.0
  0
SPLINE
  5
105
100
AcDbEntity
  8
0
 62
7
100
AcDbSpline
 70
8
 71
3
 72
8
 73
4
 74
0
 40
0
 40
0
 40
0
 40
0
 40
1
 40
1
 40
1
 40
1
 10
19.455000
 20
58.755000
 30
0.0
 10
11.586187
 20
58.755000
 30
0.0
 10
4.492188
 20
54.014941
 30
0.0
 10
1.480924
 20
46.745106
 30
0.0
  0
SPLINE
  5
106
100
AcDbEntity
  8
0
 62
7
100
AcDbSpline
 70
8
 71
3
 72
8
 73
4
 74
0
 40
0
 40
0
 40
0
 40
0
 40
1
 40
1
 40
1
 40
1
 10
1.480924
 20
46.745106
 30
0.0
 10
-1.530341
 20
39.475271
 30
0.0
 10
0.134147
 20
31.107329
 30
0.0
 10
5.698238
 20
25.543238
 30
0.0
  0
SPLINE
  5
107
100
AcDbEntity
  8
0
 62
7
100
AcDbSpline
 70
8
 71
3
 72
8
 73
4
 74
0
 40
0
 40
0
 40
0
 40
0
 40
1
 40
1
 40
1
 40
1
 10
5.698238
 20
25.543238
 30
0.0
 10
11.262329
 20
19.979147
 30
0.0
 10
19.630271
 20
18.314659
 30
0.0
 10
26.900106
 20
21.325924
 30
0.0
  0
SPLINE
  5
108
100
AcDbEntity
  8
0
 62
7
100
AcDbSpline
 70
8
 71
3
 72
8
 73
4
 74
0
 40
0
 40
0
 40
0
 40
0
 40
1
 40
1
 40
1
 40
1
 10
26.900106
 20
21.325924
 30
0.0
 10
34.169941
 20
24.337188
 30
0.0
 10
38.910000
 20
31.431187
 30
0.0
 10
38.910000
 20
39.300000
 30
0.0
  0
SPLINE
  5
109
100
AcDbEntity
  8
0
 62
7
100
AcDbSpline
 70
8
 71
3
 72
8
 73
4
 74
0
 40
0
 40
0
 40
0
 40
0
 40
1
 40
1
 40
1
 40
1
 10
38.910000
 20
39.300000
 30
0.0
 10
38.910000
 20
44.459787
 30
0.0
 10
36.860283
 20
49.408242
 30
0.0
 10
33.211762
 20
53.056762
 30
0.0
  0
SPLINE
  5
10a
100
AcDbEntity
  8
0
 62
7
100
AcDbSpline
 70
8
 71
3
 72
8
 73
4
 74
0
 40
0
 40
0
 40
0
 40
0
 40
1
 40
1
 40
1
 40
1
 10
33.211762
 20
53.056762
 30
0.0
 10
29.563242
 20
56.705283
 30
0.0
 10
24.614787
 20
58.755000
 30
0.0
 10
19.455000
 20
58.755000
 30
0.0
  0
LWPOLYLINE
  5
10b
100
AcDbEntity
  8
0
 62
7
100
AcDbPolyline
 90
1
 70
1
 10
154.237500
 20
136.567500
 30
0.0
  0
SPLINE
  5
10c
100
AcDbEntity
  8
0
 62
7
100
AcDbSpline
 70
8
 71
3
 72
8
 73
4
 74
0
 40
0
 40
0
 40
0
 40
0
 40
1
 40
1
 40
1
 40
1
 10
9.030000
 20
85.215000
 30
0.0
 10
6.196742
 20
85.215000
 30
0.0
 10
3.642465
 20
83.508287
 30
0.0
 10
2.558224
 20
80.890697
 30
0.0
  0
SPLINE
  5
10d
100
AcDbEntity
  8
0
 62
7
100
AcDbSpline
 70
8
 71
3
 72
8
 73
4
 74
0
 40
0
 40
0
 40
0
 40
0
 40
1
 40
1
 40
1
 40
1
 10
2.558224
 20
80.890697
 30
0.0
 10
1.473983
 20
78.273108
 30
0.0
 10
2.073301
 20
75.260133
 30
0.0
 10
4.076717
 20
73.256717
 30
0.0
  0
SPLINE
  5
10e
100
AcDbEntity
  8
0
 62
7
100
AcDbSpline
 70
8
 71
3
 72
8
 73
4
 74
0
 40
0
 40
0
 40
0
 40
0
 40
1
 40
1
 40
1
 40
1
 10
4.076717
 20
73.256717
 30
0.0
 10
6.080133
 20
71.253301
 30
0.0
 10
9.093108
 20
70.653983
 30
0.0
 10
11.710697
 20
71.738224
 30
0.0
  0
SPLINE
  5
10f
100
AcDbEntity
  8
0
 62
7
100
AcDbSpline
 70
8
 71
3
 72
8
 73
4
 74
0
 40
0
 40
0
 40
0
 40
0
 40
1
 40
1
 40
1
 40
1
 10
11.710697
 20
71.738224
 30
0.0
 10
14.328287
 20
72.822465
 30
0.0
 10
16.035000
 20
75.376742
 30
0.0
 10
16.035000
 20
78.210000
 30
0.0
  0
SPLINE
  5
110
100
AcDbEntity
  8
0
 62
7
100
AcDbSpline
 70
8
 71
3
 72
8
 73
4
 74
0
 40
0
 40
0
 40
0
 40
0
 40
1
 40
1
 40
1
 40
1
 10
16.035000
 20
78.210000
 30
0.0
 10
16.035000
 20
80.067842
 30
0.0
 10
15.296975
 20
81.849591
 30
0.0
 10
13.983283
 20
83.163283
 30
0.0
  0
SPLINE
  5
111
100
AcDbEntity
  8
0
 62
7
100
AcDbSpline
 70
8
 71
3
 72
8
 73
4
 74
0
 40
0
 40
0
 40
0
 40
0
 40
1
 40
1
 40
1
 40
1
 10
13.983283
 20
83.163283
 30
0.0
 10
12.669591
 20
84.476975
 30
0.0
 10
10.887842
 20
85.215000
 30
0.0
 10
9.030000
 20
85.215000
 30
0.0
  0
LWPOLYLINE
  5
112
100
AcDbEntity
  8
0
 62
7
100
AcDbPolyline
 90
1
 70
1
 10
19.455000
 20
58.755000
 30
0.0
  0
SPLINE
  5
113
100
AcDbEntity
  8
0
 62
7
100
AcDbSpline
 70
8
 71
3
 72
8
 73
4
 74
0
 40
0
 40
0
 40
0
 40
0
 40
1
 40
1
 40
1
 40
1
 10
86.842500
 20
163.027500
 30
0.0
 10
84.009242
 20
163.027500
 30
0.0
 10
81.454965
 20
161.320787
 30
0.0
 10
80.370724
 20
158.703197
 30
0.0
  0
SPLINE
  5
114
100
AcDbEntity
  8
0
 62
7
100
AcDbSpline
 70
8
 71
3
 72
8
 73
4
 74
0
 40
0
 40
0
 40
0
 40
0
 40
1
 40
1
 40
1
 40
1
 10
80.370724
 20
158.703197
 30
0.0
 10
79.286483
 20
156.085608
 30
0.0
 10
79.885801
 20
153.072633
 30
0.0
 10
81.889217
 20
151.069217
 30
0.0
  0
SPLINE
  5
115
100
AcDbEntity
  8
0
 62
7
100
AcDbSpline
 70
8
 71
3
 72
8
 73
4
 74
0
 40
0
 40
0
 40
0
 40
0
 40
1
 40
1
 40
1
 40
1
 10
81.889217
 20
151.069217
 30
0.0
 10
83.892633
 20
149.065801
 30
0.0
 10
86.905608
 20
148.466483
 30
0.0
 10
89.523197
 20
149.550724
 30
0.0
  0
SPLINE
  5
116
100
AcDbEntity
  8
0
 62
7
100
AcDbSpline
 70
8
 71
3
 72
8
 73
4
 74
0
 40
0
 40
0
 40
0
 40
0
 40
1
 40
1
 40
1
 40
1
 10
89.523197
 20
149.550724
 30
0.0
 10
92.140787
 20
150.634965
 30
0.0
 10
93.847500
 20
153.189242
 30
0.0
 10
93.847500
 20
156.022500
 30
0.0
  0
SPLINE
  5
117
100
AcDbEntity
  8
0
 62
7
100
AcDbSpline
 70
8
 71
3
 72
8
 73
4
 74
0
 40
0
 40
0
 40
0
 40
0
 40
1
 40
1
 40
1
 40
1
 10
93.847500
 20
156.022500
 30
0.0
 10
93.847500
 20
157.880342
 30
0.0
 10
93.109475
 20
159.662091
 30
0.0
 10
91.795783
 20
160.975783
 30
0.0
  0
SPLINE
  5
118
100
AcDbEntity
  8
0
 62
7
100
AcDbSpline
 70
8
 71
3
 72
8
 73
4
 74
0
 40
0
 40
0
 40
0
 40
0
 40
1
 40
1
 40
1
 40
1
 10
91.795783
 20
160.975783
 30
0.0
 10
90.482091
 20
162.289475
 30
0.0
 10
88.700342
 20
163.027500
 30
0.0
 10
86.842500
 20
163.027500
 30
0.0
  0
LWPOLYLINE
  5
119
100
AcDbEntity
  8
0
 62
7
100
AcDbPolyline
 90
1
 70
1
 10
9.030000
 20
85.215000
 30
0.0
  0
SPLINE
  5
11a
100
AcDbEntity
  8
0
 62
7
100
AcDbSpline
 70
8
 71
3
 72
8
 73
4
 74
0
 40
0
 40
0
 40
0
 40
0
 40
1
 40
1
 40
1
 40
1
 10
9.030000
 20
85.215000
 30
0.0
 10
6.196742
 20
85.215000
 30
0.0
 10
3.642465
 20
83.508287
 30
0.0
 10
2.558224
 20
80.890697
 30
0.0
  0
SPLINE
  5
11b
100
AcDbEntity
  8
0
 62
7
100
AcDbSpline
 70
8
 71
3
 72
8
 73
4
 74
0
 40
0
 40
0
 40
0
 40
0
 40
1
 40
1
 40
1
 40
1
 10
2.558224
 20
80.890697
 30
0.0
 10
1.473983
 20
78.273108
 30
0.0
 10
2.073301
 20
75.260133
 30
0.0
 10
4.076717
 20
73.256717
 30
0.0
  0
SPLINE
  5
11c
100
AcDbEntity
  8
0
 62
7
100
AcDbSpline
 70
8
 71
3
 72
8
 73
4
 74
0
 40
0
 40
0
 40
0
 40
0
 40
1
 40
1
 40
1
 40
1
 10
4.076717
 20
73.256717
 30
0.0
 10
6.080133
 20
71.253301
 30
0.0
 10
9.093108
 20
70.653983
 30
0.0
 10
11.710697
 20
71.738224
 30
0.0
  0
SPLINE
  5
11d
100
AcDbEntity
  8
0
 62
7
100
AcDbSpline
 70
8
 71
3
 72
8
 73
4
 74
0
 40
0
 40
0
 40
0
 40
0
 40
1
 40
1
 40
1
 40
1
 10
11.710697
 20
71.738224
 30
0.0
 10
14.328287
 20
72.822465
 30
0.0
 10
16.035000
 20
75.376742
 30
0.0
 10
16.035000
 20
78.210000
 30
0.0
  0
SPLINE
  5
11e
100
AcDbEntity
  8
0
 62
7
100
AcDbSpline
 70
8
 71
3
 72
8
 73
4
 74
0
 40
0
 40
0
 40
0
 40
0
 40
1
 40
1
 40
1
 40
1
 10
16.035000
 20
78.210000
 30
0.0
 10
16.035000
 20
80.067842
 30
0.0
 10
15.296975
 20
81.849591
 30
0.0
 10
13.983283
 20
83.163283
 30
0.0
  0
SPLINE
  5
11f
100
AcDbEntity
  8
0
 62
7
100
AcDbSpline
 70
8
 71
3
 72
8
 73
4
 74
0
 40
0
 40
0
 40
0
 40
0
 40
1
 40
1
 40
1
 40
1
 10
13.983283
 20
83.163283
 30
0.0
 10
12.669591
 20
84.476975
 30
0.0
 10
10.887842
 20
85.215000
 30
0.0
 10
9.030000
 20
85.215000
 30
0.0
  0
LWPOLYLINE
  5
120
100
AcDbEntity
  8
0
 62
7
100
AcDbPolyline
 90
1
 70
1
 10
86.842500
 20
163.027500
 30
0.0
  0
SPLINE
  5
121
100
AcDbEntity
  8
0
 62
7
100
AcDbSpline
 70
8
 71
3
 72
8
 73
4
 74
0
 40
0
 40
0
 40
0
 40
0
 40
1
 40
1
 40
1
 40
1
 10
86.842500
 20
163.027500
 30
0.0
 10
84.009242
 20
163.027500
 30
0.0
 10
81.454965
 20
161.320787
 30
0.0
 10
80.370724
 20
158.703197
 30
0.0
  0
SPLINE
  5
122
100
AcDbEntity
  8
0
 62
7
100
AcDbSpline
 70
8
 71
3
 72
8
 73
4
 74
0
 40
0
 40
0
 40
0
 40
0
 40
1
 40
1
 40
1
 40
1
 10
80.370724
 20
158.703197
 30
0.0
 10
79.286483
 20
156.085608
 30
0.0
 10
79.885801
 20
153.072633
 30
0.0
 10
81.889217
 20
151.069217
 30
0.0
  0
SPLINE
  5
123
100
AcDbEntity
  8
0
 62
7
100
AcDbSpline
 70
8
 71
3
 72
8
 73
4
 74
0
 40
0
 40
0
 40
0
 40
0
 40
1
 40
1
 40
1
 40
1
 10
81.889217
 20
151.069217
 30
0.0
 10
83.892633
 20
149.065801
 30
0.0
 10
86.905608
 20
148.466483
 30
0.0
 10
89.523197
 20
149.550724
 30
0.0
  0
SPLINE
  5
124
100
AcDbEntity
  8
0
 62
7
100
AcDbSpline
 70
8
 71
3
 72
8
 73
4
 74
0
 40
0
 40
0
 40
0
 40
0
 40
1
 40
1
 40
1
 40
1
 10
89.523197
 20
149.550724
 30
0.0
 10
92.140787
 20
150.634965
 30
0.0
 10
93.847500
 20
153.189242
 30
0.0
 10
93.847500
 20
156.022500
 30
0.0
  0
SPLINE
  5
125
100
AcDbEntity
  8
0
 62
7
100
AcDbSpline
 70
8
 71
3
 72
8
 73
4
 74
0
 40
0
 40
0
 40
0
 40
0
 40
1
 40
1
 40
1
 40
1
 10
93.847500
 20
156.022500
 30
0.0
 10
93.847500
 20
157.880342
 30
0.0
 10
93.109475
 20
159.662091
 30
0.0
 10
91.795783
 20
160.975783
 30
0.0
  0
SPLINE
  5
126
100
AcDbEntity
  8
0
 62
7
100
AcDbSpline
 70
8
 71
3
 72
8
 73
4
 74
0
 40
0
 40
0
 40
0
 40
0
 40
1
 40
1
 40
1
 40
1
 10
91.795783
 20
160.975783
 30
0.0
 10
90.482091
 20
162.289475
 30
0.0
 10
88.700342
 20
163.027500
 30
0.0
 10
86.842500
 20
163.027500
 30
0.0
  0
LWPOLYLINE
  5
127
100
AcDbEntity
  8
0
 62
7
100
AcDbPolyline
 90
1
 70
1
 10
9.030000
 20
85.215000
 30
0.0
  0
SPLINE
  5
128
100
AcDbEntity
  8
0
 62
7
100
AcDbSpline
 70
8
 71
3
 72
8
 73
4
 74
0
 40
0
 40
0
 40
0
 40
0
 40
1
 40
1
 40
1
 40
1
 10
47.940000
 20
152.602500
 30
0.0
 10
45.106742
 20
152.602500
 30
0.0
 10
42.552465
 20
150.895787
 30
0.0
 10
41.468224
 20
148.278197
 30
0.0
  0
SPLINE
  5
129
100
AcDbEntity
  8
0
 62
7
100
AcDbSpline
 70
8
 71
3
 72
8
 73
4
 74
0
 40
0
 40
0
 40
0
 40
0
 40
1
 40
1
 40
1
 40
1
 10
41.468224
 20
148.278197
 30
0.0
 10
40.383983
 20
145.660608
 30
0.0
 10
40.983301
 20
142.647633
 30
0.0
 10
42.986717
 20
140.644217
 30
0.0
  0
SPLINE
  5
12a
100
AcDbEntity
  8
0
 62
7
100
AcDbSpline
 70
8
 71
3
 72
8
 73
4
 74
0
 40
0
 40
0
 40
0
 40
0
 40
1
 40
1
 40
1
 40
1
 10
42.986717
 20
140.644217
 30
0.0
 10
44.990133
 20
138.640801
 30
0.0
 10
48.003108
 20
138.041483
 30
0.0
 10
50.620697
 20
139.125724
 30
0.0
  0
SPLINE
  5
12b
100
AcDbEntity
  8
0
 62
7
100
AcDbSpline
 70
8
 71
3
 72
8
 73
4
 74
0
 40
0
 40
0
 40
0
 40
0
 40
1
 40
1
 40
1
 40
1
 10
50.620697
 20
139.125724
 30
0.0
 10
53.238287
 20
140.209965
 30
0.0
 10
54.945000
 20
142.764242
 30
0.0
 10
54.945000
 20
145.597500
 30
0.0
  0
SPLINE
  5
12c
100
AcDbEntity
  8
0
 62
7
100
AcDbSpline
 70
8
 71
3
 72
8
 73
4
 74
0
 40
0
 40
0
 40
0
 40
0
 40
1
 40
1
 40
1
 40
1
 10
54.945000
 20
145.597500
 30
0.0
 10
54.945000
 20
147.455342
 30
0.0
 10
54.206975
 20
149.237091
 30
0.0
 10
52.893283
 20
150.550783
 30
0.0
  0
SPLINE
  5
12d
100
AcDbEntity
  8
0
 62
7
100
AcDbSpline
 70
8
 71
3
 72
8
 73
4
 74
0
 40
0
 40
0
 40
0
 40
0
 40
1
 40
1
 40
1
 40
1
 10
52.893283
 20
150.550783
 30
0.0
 10
51.579591
 20
151.864475
 30
0.0
 10
49.797842
 20
152.602500
 30
0.0
 10
47.940000
 20
152.602500
 30
0.0
  0
LWPOLYLINE
  5
12e
100
AcDbEntity
  8
0
 62
7
100
AcDbPolyline
 90
1
 70
1
 10
86.842500
 20
163.027500
 30
0.0
  0
SPLINE
  5
12f
100
AcDbEntity
  8
0
 62
7
100
AcDbSpline
 70
8
 71
3
 72
8
 73
4
 74
0
 40
0
 40
0
 40
0
 40
0
 40
1
 40
1
 40
1
 40
1
 10
125.752500
 20
152.602500
 30
0.0
 10
122.919242
 20
152.602500
 30
0.0
 10
120.364965
 20
150.895787
 30
0.0
 10
119.280724
 20
148.278197
 30
0.0
  0
SPLINE
  5
130
100
AcDbEntity
  8
0
 62
7
100
AcDbSpline
 70
8
 71
3
 72
8
 73
4
 74
0
 40
0
 40
0
 40
0
 40
0
 40
1
 40
1
 40
1
 40
1
 10
119.280724
 20
148.278197
 30
0.0
 10
118.196483
 20
145.660608
 30
0.0
 10
118.795801
 20
142.647633
 30
0.0
 10
120.799217
 20
140.644217
 30
0.0
  0
SPLINE
  5
131
100
AcDbEntity
  8
0
 62
7
100
AcDbSpline
 70
8
 71
3
 72
8
 73
4
 74
0
 40
0
 40
0
 40
0
 40
0
 40
1
 40
1
 40
1
 40
1
 10
120.799217
 20
140.644217
 30
0.0
 10
122.802633
 20
138.640801
 30
0.0
 10
125.815608
 20
138.041483
 30
0.0
 10
128.433197
 20
139.125724
 30
0.0
  0
SPLINE
  5
132
100
AcDbEntity
  8
0
 62
7
100
AcDbSpline
 70
8
 71
3
 72
8
 73
4
 74
0
 40
0
 40
0
 40
0
 40
0
 40
1
 40
1
 40
1
 40
1
 10
128.433197
 20
139.125724
 30
0.0
 10
131.050787
 20
140.209965
 30
0.0
 10
132.757500
 20
142.764242
 30
0.0
 10
132.757500
 20
145.597500
 30
0.0
  0
SPLINE
  5
133
100
AcDbEntity
  8
0
 62
7
100
AcDbSpline
 70
8
 71
3
 72
8
 73
4
 74
0
 40
0
 40
0
 40
0
 40
0
 40
1
 40
1
 40
1
 40
1
 10
132.757500
 20
145.597500
 30
0.0
 10
132.757500
 20
147.455342
 30
0.0
 10
132.019475
 20
149.237091
 30
0.0
 10
130.705783
 20
150.550783
 30
0.0
  0
SPLINE
  5
134
100
AcDbEntity
  8
0
 62
7
100
AcDbSpline
 70
8
 71
3
 72
8
 73
4
 74
0
 40
0
 40
0
 40
0
 40
0
 40
1
 40
1
 40
1
 40
1
 10
130.705783
 20
150.550783
 30
0.0
 10
129.392091
 20
151.864475
 30
0.0
 10
127.610342
 20
152.602500
 30
0.0
 10
125.752500
 20
152.602500
 30
0.0
  0
LWPOLYLINE
  5
135
100
AcDbEntity
  8
0
 62
7
100
AcDbPolyline
 90
1
 70
1
 10
47.940000
 20
152.602500
 30
0.0
  0
SPLINE
  5
136
100
AcDbEntity
  8
0
 62
7
100
AcDbSpline
 70
8
 71
3
 72
8
 73
4
 74
0
 40
0
 40
0
 40
0
 40
0
 40
1
 40
1
 40
1
 40
1
 10
19.455000
 20
124.117500
 30
0.0
 10
16.621742
 20
124.117500
 30
0.0
 10
14.067465
 20
122.410787
 30
0.0
 10
12.983224
 20
119.793197
 30
0.0
  0
SPLINE
  5
137
100
AcDbEntity
  8
0
 62
7
100
AcDbSpline
 70
8
 71
3
 72
8
 73
4
 74
0
 40
0
 40
0
 40
0
 40
0
 40
1
 40
1
 40
1
 40
1
 10
12.983224
 20
119.793197
 30
0.0
 10
11.898983
 20
117.175608
 30
0.0
 10
12.498301
 20
114.162633
 30
0.0
 10
14.501717
 20
112.159217
 30
0.0
  0
SPLINE
  5
138
100
AcDbEntity
  8
0
 62
7
100
AcDbSpline
 70
8
 71
3
 72
8
 73
4
 74
0
 40
0
 40
0
 40
0
 40
0
 40
1
 40
1
 40
1
 40
1
 10
14.501717
 20
112.159217
 30
0.0
 10
16.505133
 20
110.155801
 30
0.0
 10
19.518108
 20
109.556483
 30
0.0
 10
22.135697
 20
110.640724
 30
0.0
  0
SPLINE
  5
139
100
AcDbEntity
  8
0
 62
7
100
AcDbSpline
 70
8
 71
3
 72
8
 73
4
 74
0
 40
0
 40
0
 40
0
 40
0
 40
1
 40
1
 40
1
 40
1
 10
22.135697
 20
110.640724
 30
0.0
 10
24.753287
 20
111.724965
 30
0.0
 10
26.460000
 20
114.279242
 30
0.0
 10
26.460000
 20
117.112500
 30
0.0
  0
SPLINE
  5
13a
100
AcDbEntity
  8
0
 62
7
100
AcDbSpline
 70
8
 71
3
 72
8
 73
4
 74
0
 40
0
 40
0
 40
0
 40
0
 40
1
 40
1
 40
1
 40
1
 10
26.460000
 20
117.112500
 30
0.0
 10
26.460000
 20
118.970342
 30
0.0
 10
25.721975
 20
120.752091
 30
0.0
 10
24.408283
 20
122.065783
 30
0.0
  0
SPLINE
  5
13b
100
AcDbEntity
  8
0
 62
7
100
AcDbSpline
 70
8
 71
3
 72
8
 73
4
 74
0
 40
0
 40
0
 40
0
 40
0
 40
1
 40
1
 40
1
 40
1
 10
24.408283
 20
122.065783
 30
0.0
 10
23.094591
 20
123.379475
 30
0.0
 10
21.312842
 20
124.117500
 30
0.0
 10
19.455000
 20
124.117500
 30
0.0
  0
LWPOLYLINE
  5
13c
100
AcDbEntity
  8
0
 62
7
100
AcDbPolyline
 90
1
 70
1
 10
125.752500
 20
152.602500
 30
0.0
  0
SPLINE
  5
13d
100
AcDbEntity
  8
0
 62
7
100
AcDbSpline
 70
8
 71
3
 72
8
 73
4
 74
0
 40
0
 40
0
 40
0
 40
0
 40
1
 40
1
 40
1
 40
1
 10
122.355000
 20
24.735000
 30
0.0
 10
122.355000
 20
20.017500
 30
0.0
 10
121.140000
 20
15.780000
 30
0.0
 10
118.710000
 20
12.022500
 30
0.0
  0
SPLINE
  5
13e
100
AcDbEntity
  8
0
 62
7
100
AcDbSpline
 70
8
 71
3
 72
8
 73
4
 74
0
 40
0
 40
0
 40
0
 40
0
 40
1
 40
1
 40
1
 40
1
 10
118.710000
 20
12.022500
 30
0.0
 10
116.280000
 20
8.265000
 30
0.0
 10
112.725000
 20
5.317500
 30
0.0
 10
108.045000
 20
3.195000
 30
0.0
  0
SPLINE
  5
13f
100
AcDbEntity
  8
0
 62
7
100
AcDbSpline
 70
8
 71
3
 72
8
 73
4
 74
0
 40
0
 40
0
 40
0
 40
0
 40
1
 40
1
 40
1
 40
1
 10
108.045000
 20
3.195000
 30
0.0
 10
103.365000
 20
1.072500
 30
0.0
 10
97.815000
 20
0.000000
 30
0.0
 10
91.395000
 20
0.000000
 30
0.0
  0
SPLINE
  5
140
100
AcDbEntity
  8
0
 62
7
100
AcDbSpline
 70
8
 71
3
 72
8
 73
4
 74
0
 40
0
 40
0
 40
0
 40
0
 40
1
 40
1
 40
1
 40
1
 10
91.395000
 20
0.000000
 30
0.0
 10
83.700000
 20
0.000000
 30
0.0
 10
77.355000
 20
1.455000
 30
0.0
 10
72.352500
 20
4.365000
 30
0.0
  0
SPLINE
  5
141
100
AcDbEntity
  8
0
 62
7
100
AcDbSpline
 70
8
 71
3
 72
8
 73
4
 74
0
 40
0
 40
0
 40
0
 40
0
 40
1
 40
1
 40
1
 40
1
 10
72.352500
 20
4.365000
 30
0.0
 10
68.805000
 20
6.457500
 30
0.0
 10
65.925000
 20
9.247500
 30
0.0
 10
63.712500
 20
12.742500
 30
0.0
  0
SPLINE
  5
142
100
AcDbEntity
  8
0
 62
7
100
AcDbSpline
 70
8
 71
3
 72
8
 73
4
 74
0
 40
0
 40
0
 40
0
 40
0
 40
1
 40
1
 40
1
 40
1
 10
63.712500
 20
12.742500
 30
0.0
 10
61.492500
 20
16.230000
 30
0.0
 10
60.390000
 20
19.627500
 30
0.0
 10
60.390000
 20
22.927500
 30
0.0
  0
SPLINE
  5
143
100
AcDbEntity
  8
0
 62
7
100
AcDbSpline
 70
8
 71
3
 72
8
 73
4
 74
0
 40
0
 40
0
 40
0
 40
0
 40
1
 40
1
 40
1
 40
1
 10
60.390000
 20
22.927500
 30
0.0
 10
60.390000
 20
24.840000
 30
0.0
 10
61.057500
 20
26.482500
 30
0.0
 10
62.385000
 20
27.847500
 30
0.0
  0
SPLINE
  5
144
100
AcDbEntity
  8
0
 62
7
100
AcDbSpline
 70
8
 71
3
 72
8
 73
4
 74
0
 40
0
 40
0
 40
0
 40
0
 40
1
 40
1
 40
1
 40
1
 10
62.385000
 20
27.847500
 30
0.0
 10
63.712500
 20
29.212500
 30
0.0
 10
65.407500
 20
29.895000
 30
0.0
 10
67.462500
 20
29.895000
 30
0.0
  0
SPLINE
  5
145
100
AcDbEntity
  8
0
 62
7
100
AcDbSpline
 70
8
 71
3
 72
8
 73
4
 74
0
 40
0
 40
0
 40
0
 40
0
 40
1
 40
1
 40
1
 40
1
 10
67.462500
 20
29.895000
 30
0.0
 10
69.127500
 20
29.895000
 30
0.0
 10
70.537500
 20
29.362500
 30
0.0
 10
71.692500
 20
28.297500
 30
0.0
  0
SPLINE
  5
146
100
AcDbEntity
  8
0
 62
7
100
AcDbSpline
 70
8
 71
3
 72
8
 73
4
 74
0
 40
0
 40
0
 40
0
 40
0
 40
1
 40
1
 40
1
 40
1
 10
71.692500
 20
28.297500
 30
0.0
 10
72.847500
 20
27.232500
 30
0.0
 10
73.830000
 20
25.657500
 30
0.0
 10
74.647500
 20
23.565000
 30
0.0
  0
SPLINE
  5
147
100
AcDbEntity
  8
0
 62
7
100
AcDbSpline
 70
8
 71
3
 72
8
 73
4
 74
0
 40
0
 40
0
 40
0
 40
0
 40
1
 40
1
 40
1
 40
1
 10
74.647500
 20
23.565000
 30
0.0
 10
75.637500
 20
21.082500
 30
0.0
 10
76.710000
 20
19.005000
 30
0.0
 10
77.865000
 20
17.340000
 30
0.0
  0
SPLINE
  5
148
100
AcDbEntity
  8
0
 62
7
100
AcDbSpline
 70
8
 71
3
 72
8
 73
4
 74
0
 40
0
 40
0
 40
0
 40
0
 40
1
 40
1
 40
1
 40
1
 10
77.865000
 20
17.340000
 30
0.0
 10
79.020000
 20
15.675000
 30
0.0
 10
80.640000
 20
14.302500
 30
0.0
 10
82.732500
 20
13.215000
 30
0.0
  0
SPLINE
  5
149
100
AcDbEntity
  8
0
 62
7
100
AcDbSpline
 70
8
 71
3
 72
8
 73
4
 74
0
 40
0
 40
0
 40
0
 40
0
 40
1
 40
1
 40
1
 40
1
 10
82.732500
 20
13.215000
 30
0.0
 10
84.825000
 20
12.127500
 30
0.0
 10
87.570000
 20
11.595000
 30
0.0
 10
90.975000
 20
11.595000
 30
0.0
  0
SPLINE
  5
14a
100
AcDbEntity
  8
0
 62
7
100
AcDbSpline
 70
8
 71
3
 72
8
 73
4
 74
0
 40
0
 40
0
 40
0
 40
0
 40
1
 40
1
 40
1
 40
1
 10
90.975000
 20
11.595000
 30
0.0
 10
95.655000
 20
11.595000
 30
0.0
 10
99.457500
 20
12.682500
 30
0.0
 10
102.382500
 20
14.865000
 30
0.0
  0
SPLINE
  5
14b
100
AcDbEntity
  8
0
 62
7
100
AcDbSpline
 70
8
 71
3
 72
8
 73
4
 74
0
 40
0
 40
0
 40
0
 40
0
 40
1
 40
1
 40
1
 40
1
 10
102.382500
 20
14.865000
 30
0.0
 10
105.307500
 20
17.047500
 30
0.0
 10
106.770000
 20
19.770000
 30
0.0
 10
106.770000
 20
23.032500
 30
0.0
  0
SPLINE
  5
14c
100
AcDbEntity
  8
0
 62
7
100
AcDbSpline
 70
8
 71
3
 72
8
 73
4
 74
0
 40
0
 40
0
 40
0
 40
0
 40
1
 40
1
 40
1
 40
1
 10
106.770000
 20
23.032500
 30
0.0
 10
106.770000
 20
25.620000
 30
0.0
 10
105.982500
 20
27.720000
 30
0.0
 10
104.400000
 20
29.340000
 30
0.0
  0
SPLINE
  5
14d
100
AcDbEntity
  8
0
 62
7
100
AcDbSpline
 70
8
 71
3
 72
8
 73
4
 74
0
 40
0
 40
0
 40
0
 40
0
 40
1
 40
1
 40
1
 40
1
 10
104.400000
 20
29.340000
 30
0.0
 10
102.817500
 20
30.952500
 30
0.0
 10
100.785000
 20
32.182500
 30
0.0
 10
98.280000
 20
33.037500
 30
0.0
  0
SPLINE
  5
14e
100
AcDbEntity
  8
0
 62
7
100
AcDbSpline
 70
8
 71
3
 72
8
 73
4
 74
0
 40
0
 40
0
 40
0
 40
0
 40
1
 40
1
 40
1
 40
1
 10
98.280000
 20
33.037500
 30
0.0
 10
95.782500
 20
33.885000
 30
0.0
 10
92.437500
 20
34.792500
 30
0.0
 10
88.252500
 20
35.752500
 30
0.0
  0
SPLINE
  5
14f
100
AcDbEntity
  8
0
 62
7
100
AcDbSpline
 70
8
 71
3
 72
8
 73
4
 74
0
 40
0
 40
0
 40
0
 40
0
 40
1
 40
1
 40
1
 40
1
 10
88.252500
 20
35.752500
 30
0.0
 10
82.650000
 20
37.065000
 30
0.0
 10
77.962500
 20
38.602500
 30
0.0
 10
74.182500
 20
40.350000
 30
0.0
  0
SPLINE
  5
150
100
AcDbEntity
  8
0
 62
7
100
AcDbSpline
 70
8
 71
3
 72
8
 73
4
 74
0
 40
0
 40
0
 40
0
 40
0
 40
1
 40
1
 40
1
 40
1
 10
74.182500
 20
40.350000
 30
0.0
 10
70.402500
 20
42.105000
 30
0.0
 10
67.410000
 20
44.497500
 30
0.0
 10
65.190000
 20
47.535000
 30
0.0
  0
SPLINE
  5
151
100
AcDbEntity
  8
0
 62
7
100
AcDbSpline
 70
8
 71
3
 72
8
 73
4
 74
0
 40
0
 40
0
 40
0
 40
0
 40
1
 40
1
 40
1
 40
1
 10
65.190000
 20
47.535000
 30
0.0
 10
62.970000
 20
50.565000
 30
0.0
 10
61.867500
 20
54.330000
 30
0.0
 10
61.867500
 20
58.837500
 30
0.0
  0
SPLINE
  5
152
100
AcDbEntity
  8
0
 62
7
100
AcDbSpline
 70
8
 71
3
 72
8
 73
4
 74
0
 40
0
 40
0
 40
0
 40
0
 40
1
 40
1
 40
1
 40
1
 10
61.867500
 20
58.837500
 30
0.0
 10
61.867500
 20
63.345000
 30
0.0
 10
63.037500
 20
66.937500
 30
0.0
 10
65.377500
 20
70.275000
 30
0.0
  0
SPLINE
  5
153
100
AcDbEntity
  8
0
 62
7
100
AcDbSpline
 70
8
 71
3
 72
8
 73
4
 74
0
 40
0
 40
0
 40
0
 40
0
 40
1
 40
1
 40
1
 40
1
 10
65.377500
 20
70.275000
 30
0.0
 10
67.717500
 20
73.605000
 30
0.0
 10
71.107500
 20
76.170000
 30
0.0
 10
75.540000
 20
77.962500
 30
0.0
  0
SPLINE
  5
154
100
AcDbEntity
  8
0
 62
7
100
AcDbSpline
 70
8
 71
3
 72
8
 73
4
 74
0
 40
0
 40
0
 40
0
 40
0
 40
1
 40
1
 40
1
 40
1
 10
75.540000
 20
77.962500
 30
0.0
 10
79.972500
 20
79.755000
 30
0.0
 10
85.185000
 20
80.647500
 30
0.0
 10
91.177500
 20
80.647500
 30
0.0
  0
SPLINE
  5
155
100
AcDbEntity
  8
0
 62
7
100
AcDbSpline
 70
8
 71
3
 72
8
 73
4
 74
0
 40
0
 40
0
 40
0
 40
0
 40
1
 40
1
 40
1
 40
1
 10
91.177500
 20
80.647500
 30
0.0
 10
95.962500
 20
80.647500
 30
0.0
 10
100.102500
 20
80.055000
 30
0.0
 10
103.597500
 20
78.862500
 30
0.0
  0
SPLINE
  5
156
100
AcDbEntity
  8
0
 62
7
100
AcDbSpline
 70
8
 71
3
 72
8
 73
4
 74
0
 40
0
 40
0
 40
0
 40
0
 40
1
 40
1
 40
1
 40
1
 10
103.597500
 20
78.862500
 30
0.0
 10
107.092500
 20
77.677500
 30
0.0
 10
109.987500
 20
76.095000
 30
0.0
 10
112.297500
 20
74.130000
 30
0.0
  0
SPLINE
  5
157
100
AcDbEntity
  8
0
 62
7
100
AcDbSpline
 70
8
 71
3
 72
8
 73
4
 74
0
 40
0
 40
0
 40
0
 40
0
 40
1
 40
1
 40
1
 40
1
 10
112.297500
 20
74.130000
 30
0.0
 10
114.600000
 20
72.157500
 30
0.0
 10
116.287500
 20
70.095000
 30
0.0
 10
117.352500
 20
67.935000
 30
0.0
  0
SPLINE
  5
158
100
AcDbEntity
  8
0
 62
7
100
AcDbSpline
 70
8
 71
3
 72
8
 73
4
 74
0
 40
0
 40
0
 40
0
 40
0
 40
1
 40
1
 40
1
 40
1
 10
117.352500
 20
67.935000
 30
0.0
 10
118.417500
 20
65.767500
 30
0.0
 10
118.950000
 20
63.660000
 30
0.0
 10
118.950000
 20
61.605000
 30
0.0
  0
SPLINE
  5
159
100
AcDbEntity
  8
0
 62
7
100
AcDbSpline
 70
8
 71
3
 72
8
 73
4
 74
0
 40
0
 40
0
 40
0
 40
0
 40
1
 40
1
 40
1
 40
1
 10
118.950000
 20
61.605000
 30
0.0
 10
118.950000
 20
59.722500
 30
0.0
 10
118.282500
 20
58.035000
 30
0.0
 10
116.955000
 20
56.527500
 30
0.0
  0
SPLINE
  5
15a
100
AcDbEntity
  8
0
 62
7
100
AcDbSpline
 70
8
 71
3
 72
8
 73
4
 74
0
 40
0
 40
0
 40
0
 40
0
 40
1
 40
1
 40
1
 40
1
 10
116.955000
 20
56.527500
 30
0.0
 10
115.627500
 20
55.020000
 30
0.0
 10
113.970000
 20
54.270000
 30
0.0
 10
111.982500
 20
54.270000
 30
0.0
  0
SPLINE
  5
15b
100
AcDbEntity
  8
0
 62
7
100
AcDbSpline
 70
8
 71
3
 72
8
 73
4
 74
0
 40
0
 40
0
 40
0
 40
0
 40
1
 40
1
 40
1
 40
1
 10
111.982500
 20
54.270000
 30
0.0
 10
110.175000
 20
54.270000
 30
0.0
 10
108.802500
 20
54.720000
 30
0.0
 10
107.857500
 20
55.627500
 30
0.0
  0
SPLINE
  5
15c
100
AcDbEntity
  8
0
 62
7
100
AcDbSpline
 70
8
 71
3
 72
8
 73
4
 74
0
 40
0
 40
0
 40
0
 40
0
 40
1
 40
1
 40
1
 40
1
 10
107.857500
 20
55.627500
 30
0.0
 10
106.920000
 20
56.527500
 30
0.0
 10
105.900000
 20
58.012500
 30
0.0
 10
104.797500
 20
60.067500
 30
0.0
  0
SPLINE
  5
15d
100
AcDbEntity
  8
0
 62
7
100
AcDbSpline
 70
8
 71
3
 72
8
 73
4
 74
0
 40
0
 40
0
 40
0
 40
0
 40
1
 40
1
 40
1
 40
1
 10
104.797500
 20
60.067500
 30
0.0
 10
103.380000
 20
63.007500
 30
0.0
 10
101.677500
 20
65.310000
 30
0.0
 10
99.690000
 20
66.952500
 30
0.0
  0
SPLINE
  5
15e
100
AcDbEntity
  8
0
 62
7
100
AcDbSpline
 70
8
 71
3
 72
8
 73
4
 74
0
 40
0
 40
0
 40
0
 40
0
 40
1
 40
1
 40
1
 40
1
 10
99.690000
 20
66.952500
 30
0.0
 10
97.702500
 20
68.602500
 30
0.0
 10
94.515000
 20
69.427500
 30
0.0
 10
90.112500
 20
69.427500
 30
0.0
  0
SPLINE
  5
15f
100
AcDbEntity
  8
0
 62
7
100
AcDbSpline
 70
8
 71
3
 72
8
 73
4
 74
0
 40
0
 40
0
 40
0
 40
0
 40
1
 40
1
 40
1
 40
1
 10
90.112500
 20
69.427500
 30
0.0
 10
86.032500
 20
69.427500
 30
0.0
 10
82.747500
 20
68.527500
 30
0.0
 10
80.242500
 20
66.742500
 30
0.0
  0
SPLINE
  5
160
100
AcDbEntity
  8
0
 62
7
100
AcDbSpline
 70
8
 71
3
 72
8
 73
4
 74
0
 40
0
 40
0
 40
0
 40
0
 40
1
 40
1
 40
1
 40
1
 10
80.242500
 20
66.742500
 30
0.0
 10
77.737500
 20
64.957500
 30
0.0
 10
76.492500
 20
62.797500
 30
0.0
 10
76.492500
 20
60.277500
 30
0.0
  0
SPLINE
  5
161
100
AcDbEntity
  8
0
 62
7
100
AcDbSpline
 70
8
 71
3
 72
8
 73
4
 74
0
 40
0
 40
0
 40
0
 40
0
 40
1
 40
1
 40
1
 40
1
 10
76.492500
 20
60.277500
 30
0.0
 10
76.492500
 20
58.717500
 30
0.0
 10
76.920000
 20
57.367500
 30
0.0
 10
77.767500
 20
56.235000
 30
0.0
  0
SPLINE
  5
162
100
AcDbEntity
  8
0
 62
7
100
AcDbSpline
 70
8
 71
3
 72
8
 73
4
 74
0
 40
0
 40
0
 40
0
 40
0
 40
1
 40
1
 40
1
 40
1
 10
77.767500
 20
56.235000
 30
0.0
 10
78.615000
 20
55.102500
 30
0.0
 10
79.792500
 20
54.127500
 30
0.0
 10
81.277500
 20
53.310000
 30
0.0
  0
SPLINE
  5
163
100
AcDbEntity
  8
0
 62
7
100
AcDbSpline
 70
8
 71
3
 72
8
 73
4
 74
0
 40
0
 40
0
 40
0
 40
0
 40
1
 40
1
 40
1
 40
1
 10
81.277500
 20
53.310000
 30
0.0
 10
82.770000
 20
52.492500
 30
0.0
 10
84.277500
 20
51.855000
 30
0.0
 10
85.800000
 20
51.397500
 30
0.0
  0
SPLINE
  5
164
100
AcDbEntity
  8
0
 62
7
100
AcDbSpline
 70
8
 71
3
 72
8
 73
4
 74
0
 40
0
 40
0
 40
0
 40
0
 40
1
 40
1
 40
1
 40
1
 10
85.800000
 20
51.397500
 30
0.0
 10
87.322500
 20
50.932500
 30
0.0
 10
89.842500
 20
50.265000
 30
0.0
 10
93.352500
 20
49.372500
 30
0.0
  0
SPLINE
  5
165
100
AcDbEntity
  8
0
 62
7
100
AcDbSpline
 70
8
 71
3
 72
8
 73
4
 74
0
 40
0
 40
0
 40
0
 40
0
 40
1
 40
1
 40
1
 40
1
 10
93.352500
 20
49.372500
 30
0.0
 10
97.747500
 20
48.345000
 30
0.0
 10
101.730000
 20
47.205000
 30
0.0
 10
105.292500
 20
45.967500
 30
0.0
  0
SPLINE
  5
166
100
AcDbEntity
  8
0
 62
7
100
AcDbSpline
 70
8
 71
3
 72
8
 73
4
 74
0
 40
0
 40
0
 40
0
 40
0
 40
1
 40
1
 40
1
 40
1
 10
105.292500
 20
45.967500
 30
0.0
 10
108.855000
 20
44.722500
 30
0.0
 10
111.885000
 20
43.215000
 30
0.0
 10
114.390000
 20
41.445000
 30
0.0
  0
SPLINE
  5
167
100
AcDbEntity
  8
0
 62
7
100
AcDbSpline
 70
8
 71
3
 72
8
 73
4
 74
0
 40
0
 40
0
 40
0
 40
0
 40
1
 40
1
 40
1
 40
1
 10
114.390000
 20
41.445000
 30
0.0
 10
116.887500
 20
39.675000
 30
0.0
 10
118.837500
 20
37.432500
 30
0.0
 10
120.240000
 20
34.717500
 30
0.0
  0
SPLINE
  5
168
100
AcDbEntity
  8
0
 62
7
100
AcDbSpline
 70
8
 71
3
 72
8
 73
4
 74
0
 40
0
 40
0
 40
0
 40
0
 40
1
 40
1
 40
1
 40
1
 10
120.240000
 20
34.717500
 30
0.0
 10
121.642500
 20
32.002500
 30
0.0
 10
122.340000
 20
28.680000
 30
0.0
 10
122.340000
 20
24.742500
 30
0.0
  0
LWPOLYLINE
  5
169
100
AcDbEntity
  8
0
 62
7
100
AcDbPolyline
 90
1
 70
1
 10
19.455000
 20
124.117500
 30
0.0
  0
SPLINE
  5
16a
100
AcDbEntity
  8
0
 62
7
100
AcDbSpline
 70
8
 71
3
 72
8
 73
4
 74
0
 40
0
 40
0
 40
0
 40
0
 40
1
 40
1
 40
1
 40
1
 10
139.770000
 20
65.805000
 30
0.0
 10
137.745000
 20
65.805000
 30
0.0
 10
136.020000
 20
66.427500
 30
0.0
 10
134.587500
 20
67.665000
 30
0.0
  0
SPLINE
  5
16b
100
AcDbEntity
  8
0
 62
7
100
AcDbSpline
 70
8
 71
3
 72
8
 73
4
 74
0
 40
0
 40
0
 40
0
 40
0
 40
1
 40
1
 40
1
 40
1
 10
134.587500
 20
67.665000
 30
0.0
 10
133.147500
 20
68.902500
 30
0.0
 10
132.435000
 20
70.657500
 30
0.0
 10
132.435000
 20
72.930000
 30
0.0
  0
SPLINE
  5
16c
100
AcDbEntity
  8
0
 62
7
100
AcDbSpline
 70
8
 71
3
 72
8
 73
4
 74
0
 40
0
 40
0
 40
0
 40
0
 40
1
 40
1
 40
1
 40
1
 10
132.435000
 20
72.930000
 30
0.0
 10
132.435000
 20
74.985000
 30
0.0
 10
133.170000
 20
76.680000
 30
0.0
 10
134.640000
 20
78.007500
 30
0.0
  0
SPLINE
  5
16d
100
AcDbEntity
  8
0
 62
7
100
AcDbSpline
 70
8
 71
3
 72
8
 73
4
 74
0
 40
0
 40
0
 40
0
 40
0
 40
1
 40
1
 40
1
 40
1
 10
134.640000
 20
78.007500
 30
0.0
 10
136.110000
 20
79.342500
 30
0.0
 10
137.820000
 20
80.002500
 30
0.0
 10
139.770000
 20
80.002500
 30
0.0
  0
SPLINE
  5
16e
100
AcDbEntity
  8
0
 62
7
100
AcDbSpline
 70
8
 71
3
 72
8
 73
4
 74
0
 40
0
 40
0
 40
0
 40
0
 40
1
 40
1
 40
1
 40
1
 10
139.770000
 20
80.002500
 30
0.0
 10
141.720000
 20
80.002500
 30
0.0
 10
143.317500
 20
79.402500
 30
0.0
 10
144.772500
 20
78.195000
 30
0.0
  0
SPLINE
  5
16f
100
AcDbEntity
  8
0
 62
7
100
AcDbSpline
 70
8
 71
3
 72
8
 73
4
 74
0
 40
0
 40
0
 40
0
 40
0
 40
1
 40
1
 40
1
 40
1
 10
144.772500
 20
78.195000
 30
0.0
 10
146.227500
 20
76.987500
 30
0.0
 10
146.955000
 20
75.232500
 30
0.0
 10
146.955000
 20
72.930000
 30
0.0
  0
SPLINE
  5
170
100
AcDbEntity
  8
0
 62
7
100
AcDbSpline
 70
8
 71
3
 72
8
 73
4
 74
0
 40
0
 40
0
 40
0
 40
0
 40
1
 40
1
 40
1
 40
1
 10
146.955000
 20
72.930000
 30
0.0
 10
146.955000
 20
70.627500
 30
0.0
 10
146.242500
 20
68.947500
 30
0.0
 10
144.825000
 20
67.687500
 30
0.0
  0
SPLINE
  5
171
100
AcDbEntity
  8
0
 62
7
100
AcDbSpline
 70
8
 71
3
 72
8
 73
4
 74
0
 40
0
 40
0
 40
0
 40
0
 40
1
 40
1
 40
1
 40
1
 10
144.825000
 20
67.687500
 30
0.0
 10
143.407500
 20
66.427500
 30
0.0
 10
141.720000
 20
65.797500
 30
0.0
 10
139.770000
 20
65.797500
 30
0.0
  0
LWPOLYLINE
  5
172
100
AcDbEntity
  8
0
 62
7
100
AcDbPolyline
 90
2
 70
0
 10
122.340000
 20
24.742500
 30
0.0
 10
122.355000
 20
24.735000
 30
0.0
  0
LWPOLYLINE
  5
173
100
AcDbEntity
  8
0
 62
7
100
AcDbPolyline
 90
2
 70
0
 10
139.770000
 20
65.797500
 30
0.0
 10
139.770000
 20
65.805000
 30
0.0
  0
SPLINE
  5
174
100
AcDbEntity
  8
0
 62
7
100
AcDbSpline
 70
8
 71
3
 72
8
 73
4
 74
0
 40
0
 40
0
 40
0
 40
0
 40
1
 40
1
 40
1
 40
1
 10
146.947500
 20
8.835000
 30
0.0
 10
146.947500
 20
5.925000
 30
0.0
 10
146.257500
 20
3.727500
 30
0.0
 10
144.870000
 20
2.242500
 30
0.0
  0
SPLINE
  5
175
100
AcDbEntity
  8
0
 62
7
100
AcDbSpline
 70
8
 71
3
 72
8
 73
4
 74
0
 40
0
 40
0
 40
0
 40
0
 40
1
 40
1
 40
1
 40
1
 10
144.870000
 20
2.242500
 30
0.0
 10
143.490000
 20
0.750000
 30
0.0
 10
141.735000
 20
0.007500
 30
0.0
 10
139.605000
 20
0.007500
 30
0.0
  0
SPLINE
  5
176
100
AcDbEntity
  8
0
 62
7
100
AcDbSpline
 70
8
 71
3
 72
8
 73
4
 74
0
 40
0
 40
0
 40
0
 40
0
 40
1
 40
1
 40
1
 40
1
 10
139.605000
 20
0.007500
 30
0.0
 10
137.475000
 20
0.007500
 30
0.0
 10
135.750000
 20
0.772500
 30
0.0
 10
134.422500
 20
2.295000
 30
0.0
  0
SPLINE
  5
177
100
AcDbEntity
  8
0
 62
7
100
AcDbSpline
 70
8
 71
3
 72
8
 73
4
 74
0
 40
0
 40
0
 40
0
 40
0
 40
1
 40
1
 40
1
 40
1
 10
134.422500
 20
2.295000
 30
0.0
 10
133.095000
 20
3.817500
 30
0.0
 10
132.427500
 20
6.000000
 30
0.0
 10
132.427500
 20
8.835000
 30
0.0
  0
LWPOLYLINE
  5
178
100
AcDbEntity
  8
0
 62
7
100
AcDbPolyline
 90
2
 70
0
 10
146.947500
 20
50.805000
 30
0.0
 10
146.947500
 20
8.835000
 30
0.0
  0
SPLINE
  5
179
100
AcDbEntity
  8
0
 62
7
100
AcDbSpline
 70
8
 71
3
 72
8
 73
4
 74
0
 40
0
 40
0
 40
0
 40
0
 40
1
 40
1
 40
1
 40
1
 10
132.427500
 20
50.377500
 30
0.0
 10
132.427500
 20
53.250000
 30
0.0
 10
133.095000
 20
55.410000
 30
0.0
 10
134.422500
 20
56.865000
 30
0.0
  0
SPLINE
  5
17a
100
AcDbEntity
  8
0
 62
7
100
AcDbSpline
 70
8
 71
3
 72
8
 73
4
 74
0
 40
0
 40
0
 40
0
 40
0
 40
1
 40
1
 40
1
 40
1
 10
134.422500
 20
56.865000
 30
0.0
 10
135.750000
 20
58.320000
 30
0.0
 10
137.482500
 20
59.047500
 30
0.0
 10
139.605000
 20
59.047500
 30
0.0
  0
SPLINE
  5
17b
100
AcDbEntity
  8
0
 62
7
100
AcDbSpline
 70
8
 71
3
 72
8
 73
4
 74
0
 40
0
 40
0
 40
0
 40
0
 40
1
 40
1
 40
1
 40
1
 10
139.605000
 20
59.047500
 30
0.0
 10
141.727500
 20
59.047500
 30
0.0
 10
143.490000
 20
58.320000
 30
0.0
 10
144.870000
 20
56.865000
 30
0.0
  0
SPLINE
  5
17c
100
AcDbEntity
  8
0
 62
7
100
AcDbSpline
 70
8
 71
3
 72
8
 73
4
 74
0
 40
0
 40
0
 40
0
 40
0
 40
1
 40
1
 40
1
 40
1
 10
144.870000
 20
56.865000
 30
0.0
 10
146.250000
 20
55.410000
 30
0.0
 10
146.947500
 20
53.392500
 30
0.0
 10
146.947500
 20
50.797500
 30
0.0
  0
LWPOLYLINE
  5
17d
100
AcDbEntity
  8
0
 62
7
100
AcDbPolyline
 90
2
 70
0
 10
132.427500
 20
8.835000
 30
0.0
 10
132.427500
 20
50.377500
 30
0.0
  0
LWPOLYLINE
  5
17e
100
AcDbEntity
  8
0
 62
7
100
AcDbPolyline
 90
2
 70
0
 10
146.947500
 20
50.797500
 30
0.0
 10
146.947500
 20
50.805000
 30
0.0
  0
SPLINE
  5
17f
100
AcDbEntity
  8
0
 62
7
100
AcDbSpline
 70
8
 71
3
 72
8
 73
4
 74
0
 40
0
 40
0
 40
0
 40
0
 40
1
 40
1
 40
1
 40
1
 10
161.992500
 20
66.495000
 30
0.0
 10
161.992500
 20
68.835000
 30
0.0
 10
162.052500
 20
70.672500
 30
0.0
 10
162.180000
 20
72.000000
 30
0.0
  0
SPLINE
  5
180
100
AcDbEntity
  8
0
 62
7
100
AcDbSpline
 70
8
 71
3
 72
8
 73
4
 74
0
 40
0
 40
0
 40
0
 40
0
 40
1
 40
1
 40
1
 40
1
 10
162.180000
 20
72.000000
 30
0.0
 10
162.300000
 20
73.327500
 30
0.0
 10
162.652500
 20
74.475000
 30
0.0
 10
163.215000
 20
75.427500
 30
0.0
  0
SPLINE
  5
181
100
AcDbEntity
  8
0
 62
7
100
AcDbSpline
 70
8
 71
3
 72
8
 73
4
 74
0
 40
0
 40
0
 40
0
 40
0
 40
1
 40
1
 40
1
 40
1
 10
163.215000
 20
75.427500
 30
0.0
 10
163.785000
 20
76.417500
 30
0.0
 10
164.595000
 20
77.227500
 30
0.0
 10
165.660000
 20
77.850000
 30
0.0
  0
SPLINE
  5
182
100
AcDbEntity
  8
0
 62
7
100
AcDbSpline
 70
8
 71
3
 72
8
 73
4
 74
0
 40
0
 40
0
 40
0
 40
0
 40
1
 40
1
 40
1
 40
1
 10
165.660000
 20
77.850000
 30
0.0
 10
166.725000
 20
78.465000
 30
0.0
 10
167.910000
 20
78.780000
 30
0.0
 10
169.222500
 20
78.780000
 30
0.0
  0
SPLINE
  5
183
100
AcDbEntity
  8
0
 62
7
100
AcDbSpline
 70
8
 71
3
 72
8
 73
4
 74
0
 40
0
 40
0
 40
0
 40
0
 40
1
 40
1
 40
1
 40
1
 10
169.222500
 20
78.780000
 30
0.0
 10
171.067500
 20
78.780000
 30
0.0
 10
172.732500
 20
78.090000
 30
0.0
 10
174.225000
 20
76.702500
 30
0.0
  0
SPLINE
  5
184
100
AcDbEntity
  8
0
 62
7
100
AcDbSpline
 70
8
 71
3
 72
8
 73
4
 74
0
 40
0
 40
0
 40
0
 40
0
 40
1
 40
1
 40
1
 40
1
 10
174.225000
 20
76.702500
 30
0.0
 10
175.215000
 20
75.780000
 30
0.0
 10
175.845000
 20
74.655000
 30
0.0
 10
176.115000
 20
73.327500
 30
0.0
  0
SPLINE
  5
185
100
AcDbEntity
  8
0
 62
7
100
AcDbSpline
 70
8
 71
3
 72
8
 73
4
 74
0
 40
0
 40
0
 40
0
 40
0
 40
1
 40
1
 40
1
 40
1
 10
176.115000
 20
73.327500
 30
0.0
 10
176.377500
 20
72.000000
 30
0.0
 10
176.512500
 20
70.110000
 30
0.0
 10
176.512500
 20
67.665000
 30
0.0
  0
LWPOLYLINE
  5
186
100
AcDbEntity
  8
0
 62
7
100
AcDbPolyline
 90
3
 70
0
 10
160.395000
 20
57.772500
 30
0.0
 10
161.992500
 20
57.772500
 30
0.0
 10
161.992500
 20
66.495000
 30
0.0
  0
SPLINE
  5
187
100
AcDbEntity
  8
0
 62
7
100
AcDbSpline
 70
8
 71
3
 72
8
 73
4
 74
0
 40
0
 40
0
 40
0
 40
0
 40
1
 40
1
 40
1
 40
1
 10
181.830000
 20
57.772500
 30
0.0
 10
183.885000
 20
57.772500
 30
0.0
 10
185.460000
 20
57.285000
 30
0.0
 10
186.540000
 20
56.310000
 30
0.0
  0
SPLINE
  5
188
100
AcDbEntity
  8
0
 62
7
100
AcDbSpline
 70
8
 71
3
 72
8
 73
4
 74
0
 40
0
 40
0
 40
0
 40
0
 40
1
 40
1
 40
1
 40
1
 10
186.540000
 20
56.310000
 30
0.0
 10
187.620000
 20
55.335000
 30
0.0
 10
188.160000
 20
54.082500
 30
0.0
 10
188.160000
 20
52.560000
 30
0.0
  0
SPLINE
  5
189
100
AcDbEntity
  8
0
 62
7
100
AcDbSpline
 70
8
 71
3
 72
8
 73
4
 74
0
 40
0
 40
0
 40
0
 40
0
 40
1
 40
1
 40
1
 40
1
 10
188.160000
 20
52.560000
 30
0.0
 10
188.160000
 20
50.610000
 30
0.0
 10
187.387500
 20
49.245000
 30
0.0
 10
185.850000
 20
48.465000
 30
0.0
  0
SPLINE
  5
18a
100
AcDbEntity
  8
0
 62
7
100
AcDbSpline
 70
8
 71
3
 72
8
 73
4
 74
0
 40
0
 40
0
 40
0
 40
0
 40
1
 40
1
 40
1
 40
1
 10
185.850000
 20
48.465000
 30
0.0
 10
184.305000
 20
47.685000
 30
0.0
 10
182.100000
 20
47.295000
 30
0.0
 10
179.227500
 20
47.295000
 30
0.0
  0
LWPOLYLINE
  5
18b
100
AcDbEntity
  8
0
 62
7
100
AcDbPolyline
 90
3
 70
0
 10
176.512500
 20
67.665000
 30
0.0
 10
176.512500
 20
57.772500
 30
0.0
 10
181.830000
 20
57.772500
 30
0.0
  0
SPLINE
  5
18c
100
AcDbEntity
  8
0
 62
7
100
AcDbSpline
 70
8
 71
3
 72
8
 73
4
 74
0
 40
0
 40
0
 40
0
 40
0
 40
1
 40
1
 40
1
 40
1
 10
176.512500
 20
20.587500
 30
0.0
 10
176.512500
 20
18.315000
 30
0.0
 10
176.595000
 20
16.575000
 30
0.0
 10
176.752500
 20
15.345000
 30
0.0
  0
SPLINE
  5
18d
100
AcDbEntity
  8
0
 62
7
100
AcDbSpline
 70
8
 71
3
 72
8
 73
4
 74
0
 40
0
 40
0
 40
0
 40
0
 40
1
 40
1
 40
1
 40
1
 10
176.752500
 20
15.345000
 30
0.0
 10
176.910000
 20
14.122500
 30
0.0
 10
177.337500
 20
13.132500
 30
0.0
 10
178.027500
 20
12.367500
 30
0.0
  0
SPLINE
  5
18e
100
AcDbEntity
  8
0
 62
7
100
AcDbSpline
 70
8
 71
3
 72
8
 73
4
 74
0
 40
0
 40
0
 40
0
 40
0
 40
1
 40
1
 40
1
 40
1
 10
178.027500
 20
12.367500
 30
0.0
 10
178.717500
 20
11.602500
 30
0.0
 10
179.842500
 20
11.227500
 30
0.0
 10
181.402500
 20
11.227500
 30
0.0
  0
SPLINE
  5
18f
100
AcDbEntity
  8
0
 62
7
100
AcDbSpline
 70
8
 71
3
 72
8
 73
4
 74
0
 40
0
 40
0
 40
0
 40
0
 40
1
 40
1
 40
1
 40
1
 10
181.402500
 20
11.227500
 30
0.0
 10
182.250000
 20
11.227500
 30
0.0
 10
183.405000
 20
11.377500
 30
0.0
 10
184.860000
 20
11.677500
 30
0.0
  0
SPLINE
  5
190
100
AcDbEntity
  8
0
 62
7
100
AcDbSpline
 70
8
 71
3
 72
8
 73
4
 74
0
 40
0
 40
0
 40
0
 40
0
 40
1
 40
1
 40
1
 40
1
 10
184.860000
 20
11.677500
 30
0.0
 10
186.315000
 20
11.977500
 30
0.0
 10
187.447500
 20
12.127500
 30
0.0
 10
188.265000
 20
12.127500
 30
0.0
  0
SPLINE
  5
191
100
AcDbEntity
  8
0
 62
7
100
AcDbSpline
 70
8
 71
3
 72
8
 73
4
 74
0
 40
0
 40
0
 40
0
 40
0
 40
1
 40
1
 40
1
 40
1
 10
188.265000
 20
12.127500
 30
0.0
 10
189.435000
 20
12.127500
 30
0.0
 10
190.492500
 20
11.655000
 30
0.0
 10
191.430000
 20
10.717500
 30
0.0
  0
SPLINE
  5
192
100
AcDbEntity
  8
0
 62
7
100
AcDbSpline
 70
8
 71
3
 72
8
 73
4
 74
0
 40
0
 40
0
 40
0
 40
0
 40
1
 40
1
 40
1
 40
1
 10
191.430000
 20
10.717500
 30
0.0
 10
192.367500
 20
9.780000
 30
0.0
 10
192.840000
 20
8.617500
 30
0.0
 10
192.840000
 20
7.230000
 30
0.0
  0
SPLINE
  5
193
100
AcDbEntity
  8
0
 62
7
100
AcDbSpline
 70
8
 71
3
 72
8
 73
4
 74
0
 40
0
 40
0
 40
0
 40
0
 40
1
 40
1
 40
1
 40
1
 10
192.840000
 20
7.230000
 30
0.0
 10
192.840000
 20
4.890000
 30
0.0
 10
191.565000
 20
3.097500
 30
0.0
 10
189.007500
 20
1.860000
 30
0.0
  0
SPLINE
  5
194
100
AcDbEntity
  8
0
 62
7
100
AcDbSpline
 70
8
 71
3
 72
8
 73
4
 74
0
 40
0
 40
0
 40
0
 40
0
 40
1
 40
1
 40
1
 40
1
 10
189.007500
 20
1.860000
 30
0.0
 10
186.450000
 20
0.622500
 30
0.0
 10
182.782500
 20
-0.000000
 30
0.0
 10
177.997500
 20
-0.000000
 30
0.0
  0
SPLINE
  5
195
100
AcDbEntity
  8
0
 62
7
100
AcDbSpline
 70
8
 71
3
 72
8
 73
4
 74
0
 40
0
 40
0
 40
0
 40
0
 40
1
 40
1
 40
1
 40
1
 10
177.997500
 20
-0.000000
 30
0.0
 10
173.460000
 20
-0.000000
 30
0.0
 10
170.017500
 20
0.765000
 30
0.0
 10
167.677500
 20
2.287500
 30
0.0
  0
SPLINE
  5
196
100
AcDbEntity
  8
0
 62
7
100
AcDbSpline
 70
8
 71
3
 72
8
 73
4
 74
0
 40
0
 40
0
 40
0
 40
0
 40
1
 40
1
 40
1
 40
1
 10
167.677500
 20
2.287500
 30
0.0
 10
165.337500
 20
3.810000
 30
0.0
 10
163.800000
 20
5.925000
 30
0.0
 10
163.080000
 20
8.617500
 30
0.0
  0
SPLINE
  5
197
100
AcDbEntity
  8
0
 62
7
100
AcDbSpline
 70
8
 71
3
 72
8
 73
4
 74
0
 40
0
 40
0
 40
0
 40
0
 40
1
 40
1
 40
1
 40
1
 10
163.080000
 20
8.617500
 30
0.0
 10
162.352500
 20
11.310000
 30
0.0
 10
161.985000
 20
14.910000
 30
0.0
 10
161.985000
 20
19.417500
 30
0.0
  0
LWPOLYLINE
  5
198
100
AcDbEntity
  8
0
 62
7
100
AcDbPolyline
 90
3
 70
0
 10
179.227500
 20
47.295000
 30
0.0
 10
176.512500
 20
47.295000
 30
0.0
 10
176.512500
 20
20.587500
 30
0.0
  0
SPLINE
  5
199
100
AcDbEntity
  8
0
 62
7
100
AcDbSpline
 70
8
 71
3
 72
8
 73
4
 74
0
 40
0
 40
0
 40
0
 40
0
 40
1
 40
1
 40
1
 40
1
 10
160.072500
 20
47.295000
 30
0.0
 10
157.980000
 20
47.295000
 30
0.0
 10
156.382500
 20
47.790000
 30
0.0
 10
155.287500
 20
48.787500
 30
0.0
  0
SPLINE
  5
19a
100
AcDbEntity
  8
0
 62
7
100
AcDbSpline
 70
8
 71
3
 72
8
 73
4
 74
0
 40
0
 40
0
 40
0
 40
0
 40
1
 40
1
 40
1
 40
1
 10
155.287500
 20
48.787500
 30
0.0
 10
154.185000
 20
49.777500
 30
0.0
 10
153.637500
 20
51.037500
 30
0.0
 10
153.637500
 20
52.567500
 30
0.0
  0
SPLINE
  5
19b
100
AcDbEntity
  8
0
 62
7
100
AcDbSpline
 70
8
 71
3
 72
8
 73
4
 74
0
 40
0
 40
0
 40
0
 40
0
 40
1
 40
1
 40
1
 40
1
 10
153.637500
 20
52.567500
 30
0.0
 10
153.637500
 20
54.097500
 30
0.0
 10
154.215000
 20
55.342500
 30
0.0
 10
155.370000
 20
56.317500
 30
0.0
  0
SPLINE
  5
19c
100
AcDbEntity
  8
0
 62
7
100
AcDbSpline
 70
8
 71
3
 72
8
 73
4
 74
0
 40
0
 40
0
 40
0
 40
0
 40
1
 40
1
 40
1
 40
1
 10
155.370000
 20
56.317500
 30
0.0
 10
156.525000
 20
57.292500
 30
0.0
 10
158.197500
 20
57.780000
 30
0.0
 10
160.395000
 20
57.780000
 30
0.0
  0
LWPOLYLINE
  5
19d
100
AcDbEntity
  8
0
 62
7
100
AcDbPolyline
 90
3
 70
0
 10
161.985000
 20
19.417500
 30
0.0
 10
161.985000
 20
47.295000
 30
0.0
 10
160.072500
 20
47.295000
 30
0.0
  0
SPLINE
  5
19e
100
AcDbEntity
  8
0
 62
7
100
AcDbSpline
 70
8
 71
3
 72
8
 73
4
 74
0
 40
0
 40
0
 40
0
 40
0
 40
1
 40
1
 40
1
 40
1
 10
235.620000
 20
8.190000
 30
0.0
 10
232.110000
 20
5.460000
 30
0.0
 10
228.712500
 20
3.412500
 30
0.0
 10
225.435000
 20
2.047500
 30
0.0
  0
SPLINE
  5
19f
100
AcDbEntity
  8
0
 62
7
100
AcDbSpline
 70
8
 71
3
 72
8
 73
4
 74
0
 40
0
 40
0
 40
0
 40
0
 40
1
 40
1
 40
1
 40
1
 10
225.435000
 20
2.047500
 30
0.0
 10
222.157500
 20
0.682500
 30
0.0
 10
218.475000
 20
0.000000
 30
0.0
 10
214.395000
 20
0.000000
 30
0.0
  0
SPLINE
  5
1a0
100
AcDbEntity
  8
0
 62
7
100
AcDbSpline
 70
8
 71
3
 72
8
 73
4
 74
0
 40
0
 40
0
 40
0
 40
0
 40
1
 40
1
 40
1
 40
1
 10
214.395000
 20
0.000000
 30
0.0
 10
210.675000
 20
0.000000
 30
0.0
 10
207.397500
 20
0.735000
 30
0.0
 10
204.577500
 20
2.205000
 30
0.0
  0
SPLINE
  5
1a1
100
AcDbEntity
  8
0
 62
7
100
AcDbSpline
 70
8
 71
3
 72
8
 73
4
 74
0
 40
0
 40
0
 40
0
 40
0
 40
1
 40
1
 40
1
 40
1
 10
204.577500
 20
2.205000
 30
0.0
 10
201.757500
 20
3.675000
 30
0.0
 10
199.590000
 20
5.670000
 30
0.0
 10
198.060000
 20
8.190000
 30
0.0
  0
SPLINE
  5
1a2
100
AcDbEntity
  8
0
 62
7
100
AcDbSpline
 70
8
 71
3
 72
8
 73
4
 74
0
 40
0
 40
0
 40
0
 40
0
 40
1
 40
1
 40
1
 40
1
 10
198.060000
 20
8.190000
 30
0.0
 10
196.537500
 20
10.710000
 30
0.0
 10
195.772500
 20
13.440000
 30
0.0
 10
195.772500
 20
16.380000
 30
0.0
  0
SPLINE
  5
1a3
100
AcDbEntity
  8
0
 62
7
100
AcDbSpline
 70
8
 71
3
 72
8
 73
4
 74
0
 40
0
 40
0
 40
0
 40
0
 40
1
 40
1
 40
1
 40
1
 10
195.772500
 20
16.380000
 30
0.0
 10
195.772500
 20
20.355000
 30
0.0
 10
197.032500
 20
23.737500
 30
0.0
 10
199.552500
 20
26.542500
 30
0.0
  0
SPLINE
  5
1a4
100
AcDbEntity
  8
0
 62
7
100
AcDbSpline
 70
8
 71
3
 72
8
 73
4
 74
0
 40
0
 40
0
 40
0
 40
0
 40
1
 40
1
 40
1
 40
1
 10
199.552500
 20
26.542500
 30
0.0
 10
202.072500
 20
29.340000
 30
0.0
 10
205.530000
 20
31.222500
 30
0.0
 10
209.925000
 20
32.182500
 30
0.0
  0
SPLINE
  5
1a5
100
AcDbEntity
  8
0
 62
7
100
AcDbSpline
 70
8
 71
3
 72
8
 73
4
 74
0
 40
0
 40
0
 40
0
 40
0
 40
1
 40
1
 40
1
 40
1
 10
209.925000
 20
32.182500
 30
0.0
 10
210.847500
 20
32.392500
 30
0.0
 10
213.135000
 20
32.872500
 30
0.0
 10
216.787500
 20
33.622500
 30
0.0
  0
SPLINE
  5
1a6
100
AcDbEntity
  8
0
 62
7
100
AcDbSpline
 70
8
 71
3
 72
8
 73
4
 74
0
 40
0
 40
0
 40
0
 40
0
 40
1
 40
1
 40
1
 40
1
 10
216.787500
 20
33.622500
 30
0.0
 10
220.440000
 20
34.365000
 30
0.0
 10
223.567500
 20
35.047500
 30
0.0
 10
226.177500
 20
35.670000
 30
0.0
  0
SPLINE
  5
1a7
100
AcDbEntity
  8
0
 62
7
100
AcDbSpline
 70
8
 71
3
 72
8
 73
4
 74
0
 40
0
 40
0
 40
0
 40
0
 40
1
 40
1
 40
1
 40
1
 10
226.177500
 20
35.670000
 30
0.0
 10
228.787500
 20
36.292500
 30
0.0
 10
231.615000
 20
37.042500
 30
0.0
 10
234.660000
 20
37.935000
 30
0.0
  0
SPLINE
  5
1a8
100
AcDbEntity
  8
0
 62
7
100
AcDbSpline
 70
8
 71
3
 72
8
 73
4
 74
0
 40
0
 40
0
 40
0
 40
0
 40
1
 40
1
 40
1
 40
1
 10
234.660000
 20
37.935000
 30
0.0
 10
234.480000
 20
41.767500
 30
0.0
 10
233.707500
 20
44.572500
 30
0.0
 10
232.342500
 20
46.365000
 30
0.0
  0
SPLINE
  5
1a9
100
AcDbEntity
  8
0
 62
7
100
AcDbSpline
 70
8
 71
3
 72
8
 73
4
 74
0
 40
0
 40
0
 40
0
 40
0
 40
1
 40
1
 40
1
 40
1
 10
232.342500
 20
46.365000
 30
0.0
 10
230.977500
 20
48.157500
 30
0.0
 10
228.150000
 20
49.050000
 30
0.0
 10
223.860000
 20
49.050000
 30
0.0
  0
SPLINE
  5
1aa
100
AcDbEntity
  8
0
 62
7
100
AcDbSpline
 70
8
 71
3
 72
8
 73
4
 74
0
 40
0
 40
0
 40
0
 40
0
 40
1
 40
1
 40
1
 40
1
 10
223.860000
 20
49.050000
 30
0.0
 10
220.170000
 20
49.050000
 30
0.0
 10
217.395000
 20
48.532500
 30
0.0
 10
215.535000
 20
47.505000
 30
0.0
  0
SPLINE
  5
1ab
100
AcDbEntity
  8
0
 62
7
100
AcDbSpline
 70
8
 71
3
 72
8
 73
4
 74
0
 40
0
 40
0
 40
0
 40
0
 40
1
 40
1
 40
1
 40
1
 10
215.535000
 20
47.505000
 30
0.0
 10
213.675000
 20
46.477500
 30
0.0
 10
212.077500
 20
44.932500
 30
0.0
 10
210.750000
 20
42.877500
 30
0.0
  0
SPLINE
  5
1ac
100
AcDbEntity
  8
0
 62
7
100
AcDbSpline
 70
8
 71
3
 72
8
 73
4
 74
0
 40
0
 40
0
 40
0
 40
0
 40
1
 40
1
 40
1
 40
1
 10
210.750000
 20
42.877500
 30
0.0
 10
209.422500
 20
40.822500
 30
0.0
 10
208.477500
 20
39.465000
 30
0.0
 10
207.930000
 20
38.812500
 30
0.0
  0
SPLINE
  5
1ad
100
AcDbEntity
  8
0
 62
7
100
AcDbSpline
 70
8
 71
3
 72
8
 73
4
 74
0
 40
0
 40
0
 40
0
 40
0
 40
1
 40
1
 40
1
 40
1
 10
207.930000
 20
38.812500
 30
0.0
 10
207.382500
 20
38.152500
 30
0.0
 10
206.205000
 20
37.830000
 30
0.0
 10
204.390000
 20
37.830000
 30
0.0
  0
SPLINE
  5
1ae
100
AcDbEntity
  8
0
 62
7
100
AcDbSpline
 70
8
 71
3
 72
8
 73
4
 74
0
 40
0
 40
0
 40
0
 40
0
 40
1
 40
1
 40
1
 40
1
 10
204.390000
 20
37.830000
 30
0.0
 10
202.755000
 20
37.830000
 30
0.0
 10
201.352500
 20
38.355000
 30
0.0
 10
200.160000
 20
39.397500
 30
0.0
  0
SPLINE
  5
1af
100
AcDbEntity
  8
0
 62
7
100
AcDbSpline
 70
8
 71
3
 72
8
 73
4
 74
0
 40
0
 40
0
 40
0
 40
0
 40
1
 40
1
 40
1
 40
1
 10
200.160000
 20
39.397500
 30
0.0
 10
198.967500
 20
40.440000
 30
0.0
 10
198.375000
 20
41.782500
 30
0.0
 10
198.375000
 20
43.417500
 30
0.0
  0
SPLINE
  5
1b0
100
AcDbEntity
  8
0
 62
7
100
AcDbSpline
 70
8
 71
3
 72
8
 73
4
 74
0
 40
0
 40
0
 40
0
 40
0
 40
1
 40
1
 40
1
 40
1
 10
198.375000
 20
43.417500
 30
0.0
 10
198.375000
 20
45.967500
 30
0.0
 10
199.282500
 20
48.450000
 30
0.0
 10
201.090000
 20
50.865000
 30
0.0
  0
SPLINE
  5
1b1
100
AcDbEntity
  8
0
 62
7
100
AcDbSpline
 70
8
 71
3
 72
8
 73
4
 74
0
 40
0
 40
0
 40
0
 40
0
 40
1
 40
1
 40
1
 40
1
 10
201.090000
 20
50.865000
 30
0.0
 10
202.897500
 20
53.272500
 30
0.0
 10
205.717500
 20
55.260000
 30
0.0
 10
209.550000
 20
56.820000
 30
0.0
  0
SPLINE
  5
1b2
100
AcDbEntity
  8
0
 62
7
100
AcDbSpline
 70
8
 71
3
 72
8
 73
4
 74
0
 40
0
 40
0
 40
0
 40
0
 40
1
 40
1
 40
1
 40
1
 10
209.550000
 20
56.820000
 30
0.0
 10
213.382500
 20
58.380000
 30
0.0
 10
218.152500
 20
59.160000
 30
0.0
 10
223.860000
 20
59.160000
 30
0.0
  0
SPLINE
  5
1b3
100
AcDbEntity
  8
0
 62
7
100
AcDbSpline
 70
8
 71
3
 72
8
 73
4
 74
0
 40
0
 40
0
 40
0
 40
0
 40
1
 40
1
 40
1
 40
1
 10
223.860000
 20
59.160000
 30
0.0
 10
230.242500
 20
59.160000
 30
0.0
 10
235.260000
 20
58.402500
 30
0.0
 10
238.912500
 20
56.902500
 30
0.0
  0
SPLINE
  5
1b4
100
AcDbEntity
  8
0
 62
7
100
AcDbSpline
 70
8
 71
3
 72
8
 73
4
 74
0
 40
0
 40
0
 40
0
 40
0
 40
1
 40
1
 40
1
 40
1
 10
238.912500
 20
56.902500
 30
0.0
 10
242.565000
 20
55.395000
 30
0.0
 10
245.145000
 20
53.010000
 30
0.0
 10
246.652500
 20
49.747500
 30
0.0
  0
SPLINE
  5
1b5
100
AcDbEntity
  8
0
 62
7
100
AcDbSpline
 70
8
 71
3
 72
8
 73
4
 74
0
 40
0
 40
0
 40
0
 40
0
 40
1
 40
1
 40
1
 40
1
 10
246.652500
 20
49.747500
 30
0.0
 10
248.160000
 20
46.485000
 30
0.0
 10
248.917500
 20
42.157500
 30
0.0
 10
248.917500
 20
36.765000
 30
0.0
  0
SPLINE
  5
1b6
100
AcDbEntity
  8
0
 62
7
100
AcDbSpline
 70
8
 71
3
 72
8
 73
4
 74
0
 40
0
 40
0
 40
0
 40
0
 40
1
 40
1
 40
1
 40
1
 10
248.917500
 20
36.765000
 30
0.0
 10
248.917500
 20
33.360000
 30
0.0
 10
248.910000
 20
30.472500
 30
0.0
 10
248.887500
 20
28.095000
 30
0.0
  0
SPLINE
  5
1b7
100
AcDbEntity
  8
0
 62
7
100
AcDbSpline
 70
8
 71
3
 72
8
 73
4
 74
0
 40
0
 40
0
 40
0
 40
0
 40
1
 40
1
 40
1
 40
1
 10
248.887500
 20
28.095000
 30
0.0
 10
248.872500
 20
25.717500
 30
0.0
 10
248.842500
 20
23.077500
 30
0.0
 10
248.805000
 20
20.167500
 30
0.0
  0
SPLINE
  5
1b8
100
AcDbEntity
  8
0
 62
7
100
AcDbSpline
 70
8
 71
3
 72
8
 73
4
 74
0
 40
0
 40
0
 40
0
 40
0
 40
1
 40
1
 40
1
 40
1
 10
248.805000
 20
20.167500
 30
0.0
 10
248.805000
 20
17.437500
 30
0.0
 10
249.255000
 20
14.587500
 30
0.0
 10
250.162500
 20
11.632500
 30
0.0
  0
SPLINE
  5
1b9
100
AcDbEntity
  8
0
 62
7
100
AcDbSpline
 70
8
 71
3
 72
8
 73
4
 74
0
 40
0
 40
0
 40
0
 40
0
 40
1
 40
1
 40
1
 40
1
 10
250.162500
 20
11.632500
 30
0.0
 10
251.070000
 20
8.677500
 30
0.0
 10
251.520000
 20
6.765000
 30
0.0
 10
251.520000
 20
5.917500
 30
0.0
  0
SPLINE
  5
1ba
100
AcDbEntity
  8
0
 62
7
100
AcDbSpline
 70
8
 71
3
 72
8
 73
4
 74
0
 40
0
 40
0
 40
0
 40
0
 40
1
 40
1
 40
1
 40
1
 10
251.520000
 20
5.917500
 30
0.0
 10
251.520000
 20
4.425000
 30
0.0
 10
250.822500
 20
3.075000
 30
0.0
 10
249.420000
 20
1.845000
 30
0.0
  0
SPLINE
  5
1bb
100
AcDbEntity
  8
0
 62
7
100
AcDbSpline
 70
8
 71
3
 72
8
 73
4
 74
0
 40
0
 40
0
 40
0
 40
0
 40
1
 40
1
 40
1
 40
1
 10
249.420000
 20
1.845000
 30
0.0
 10
248.017500
 20
0.622500
 30
0.0
 10
246.435000
 20
0.007500
 30
0.0
 10
244.657500
 20
0.007500
 30
0.0
  0
SPLINE
  5
1bc
100
AcDbEntity
  8
0
 62
7
100
AcDbSpline
 70
8
 71
3
 72
8
 73
4
 74
0
 40
0
 40
0
 40
0
 40
0
 40
1
 40
1
 40
1
 40
1
 10
244.657500
 20
0.007500
 30
0.0
 10
243.165000
 20
0.007500
 30
0.0
 10
241.695000
 20
0.705000
 30
0.0
 10
240.240000
 20
2.107500
 30
0.0
  0
SPLINE
  5
1bd
100
AcDbEntity
  8
0
 62
7
100
AcDbSpline
 70
8
 71
3
 72
8
 73
4
 74
0
 40
0
 40
0
 40
0
 40
0
 40
1
 40
1
 40
1
 40
1
 10
240.240000
 20
2.107500
 30
0.0
 10
238.785000
 20
3.510000
 30
0.0
 10
237.240000
 20
5.535000
 30
0.0
 10
235.612500
 20
8.197500
 30
0.0
  0
LWPOLYLINE
  5
1be
100
AcDbEntity
  8
0
 62
7
100
AcDbPolyline
 90
2
 70
0
 10
160.395000
 20
57.780000
 30
0.0
 10
160.395000
 20
57.772500
 30
0.0
  0
SPLINE
  5
1bf
100
AcDbEntity
  8
0
 62
7
100
AcDbSpline
 70
8
 71
3
 72
8
 73
4
 74
0
 40
0
 40
0
 40
0
 40
0
 40
1
 40
1
 40
1
 40
1
 10
234.660000
 20
29.205000
 30
0.0
 10
232.530000
 20
28.425000
 30
0.0
 10
229.440000
 20
27.600000
 30
0.0
 10
225.375000
 20
26.730000
 30
0.0
  0
SPLINE
  5
1c0
100
AcDbEntity
  8
0
 62
7
100
AcDbSpline
 70
8
 71
3
 72
8
 73
4
 74
0
 40
0
 40
0
 40
0
 40
0
 40
1
 40
1
 40
1
 40
1
 10
225.375000
 20
26.730000
 30
0.0
 10
221.310000
 20
25.860000
 30
0.0
 10
218.505000
 20
25.222500
 30
0.0
 10
216.945000
 20
24.817500
 30
0.0
  0
SPLINE
  5
1c1
100
AcDbEntity
  8
0
 62
7
100
AcDbSpline
 70
8
 71
3
 72
8
 73
4
 74
0
 40
0
 40
0
 40
0
 40
0
 40
1
 40
1
 40
1
 40
1
 10
216.945000
 20
24.817500
 30
0.0
 10
215.385000
 20
24.412500
 30
0.0
 10
213.892500
 20
23.610000
 30
0.0
 10
212.475000
 20
22.425000
 30
0.0
  0
SPLINE
  5
1c2
100
AcDbEntity
  8
0
 62
7
100
AcDbSpline
 70
8
 71
3
 72
8
 73
4
 74
0
 40
0
 40
0
 40
0
 40
0
 40
1
 40
1
 40
1
 40
1
 10
212.475000
 20
22.425000
 30
0.0
 10
211.057500
 20
21.232500
 30
0.0
 10
210.345000
 20
19.575000
 30
0.0
 10
210.345000
 20
17.452500
 30
0.0
  0
SPLINE
  5
1c3
100
AcDbEntity
  8
0
 62
7
100
AcDbSpline
 70
8
 71
3
 72
8
 73
4
 74
0
 40
0
 40
0
 40
0
 40
0
 40
1
 40
1
 40
1
 40
1
 10
210.345000
 20
17.452500
 30
0.0
 10
210.345000
 20
15.330000
 30
0.0
 10
211.177500
 20
13.387500
 30
0.0
 10
212.842500
 20
11.842500
 30
0.0
  0
SPLINE
  5
1c4
100
AcDbEntity
  8
0
 62
7
100
AcDbSpline
 70
8
 71
3
 72
8
 73
4
 74
0
 40
0
 40
0
 40
0
 40
0
 40
1
 40
1
 40
1
 40
1
 10
212.842500
 20
11.842500
 30
0.0
 10
214.507500
 20
10.305000
 30
0.0
 10
216.690000
 20
9.532500
 30
0.0
 10
219.382500
 20
9.532500
 30
0.0
  0
SPLINE
  5
1c5
100
AcDbEntity
  8
0
 62
7
100
AcDbSpline
 70
8
 71
3
 72
8
 73
4
 74
0
 40
0
 40
0
 40
0
 40
0
 40
1
 40
1
 40
1
 40
1
 10
219.382500
 20
9.532500
 30
0.0
 10
222.255000
 20
9.532500
 30
0.0
 10
224.902500
 20
10.162500
 30
0.0
 10
227.332500
 20
11.422500
 30
0.0
  0
SPLINE
  5
1c6
100
AcDbEntity
  8
0
 62
7
100
AcDbSpline
 70
8
 71
3
 72
8
 73
4
 74
0
 40
0
 40
0
 40
0
 40
0
 40
1
 40
1
 40
1
 40
1
 10
227.332500
 20
11.422500
 30
0.0
 10
229.762500
 20
12.682500
 30
0.0
 10
231.547500
 20
14.302500
 30
0.0
 10
232.680000
 20
16.290000
 30
0.0
  0
SPLINE
  5
1c7
100
AcDbEntity
  8
0
 62
7
100
AcDbSpline
 70
8
 71
3
 72
8
 73
4
 74
0
 40
0
 40
0
 40
0
 40
0
 40
1
 40
1
 40
1
 40
1
 10
232.680000
 20
16.290000
 30
0.0
 10
233.992500
 20
18.487500
 30
0.0
 10
234.645000
 20
22.102500
 30
0.0
 10
234.645000
 20
27.142500
 30
0.0
  0
LWPOLYLINE
  5
1c8
100
AcDbEntity
  8
0
 62
7
100
AcDbPolyline
 90
2
 70
0
 10
235.612500
 20
8.197500
 30
0.0
 10
235.620000
 20
8.190000
 30
0.0
  0
LWPOLYLINE
  5
1c9
100
AcDbEntity
  8
0
 62
7
100
AcDbPolyline
 90
3
 70
0
 10
234.645000
 20
27.142500
 30
0.0
 10
234.645000
 20
29.220000
 30
0.0
 10
234.660000
 20
29.205000
 30
0.0
  0
SPLINE
  5
1ca
100
AcDbEntity
  8
0
 62
7
100
AcDbSpline
 70
8
 71
3
 72
8
 73
4
 74
0
 40
0
 40
0
 40
0
 40
0
 40
1
 40
1
 40
1
 40
1
 10
275.730000
 20
8.835000
 30
0.0
 10
275.730000
 20
5.887500
 30
0.0
 10
275.040000
 20
3.682500
 30
0.0
 10
273.652500
 20
2.212500
 30
0.0
  0
SPLINE
  5
1cb
100
AcDbEntity
  8
0
 62
7
100
AcDbSpline
 70
8
 71
3
 72
8
 73
4
 74
0
 40
0
 40
0
 40
0
 40
0
 40
1
 40
1
 40
1
 40
1
 10
273.652500
 20
2.212500
 30
0.0
 10
272.272500
 20
0.742500
 30
0.0
 10
270.517500
 20
0.007500
 30
0.0
 10
268.387500
 20
0.007500
 30
0.0
  0
SPLINE
  5
1cc
100
AcDbEntity
  8
0
 62
7
100
AcDbSpline
 70
8
 71
3
 72
8
 73
4
 74
0
 40
0
 40
0
 40
0
 40
0
 40
1
 40
1
 40
1
 40
1
 10
268.387500
 20
0.007500
 30
0.0
 10
266.257500
 20
0.007500
 30
0.0
 10
264.577500
 20
0.750000
 30
0.0
 10
263.227500
 20
2.242500
 30
0.0
  0
SPLINE
  5
1cd
100
AcDbEntity
  8
0
 62
7
100
AcDbSpline
 70
8
 71
3
 72
8
 73
4
 74
0
 40
0
 40
0
 40
0
 40
0
 40
1
 40
1
 40
1
 40
1
 10
263.227500
 20
2.242500
 30
0.0
 10
261.877500
 20
3.735000
 30
0.0
 10
261.202500
 20
5.932500
 30
0.0
 10
261.202500
 20
8.835000
 30
0.0
  0
LWPOLYLINE
  5
1ce
100
AcDbEntity
  8
0
 62
7
100
AcDbPolyline
 90
2
 70
0
 10
275.730000
 20
20.962500
 30
0.0
 10
275.730000
 20
8.835000
 30
0.0
  0
SPLINE
  5
1cf
100
AcDbEntity
  8
0
 62
7
100
AcDbSpline
 70
8
 71
3
 72
8
 73
4
 74
0
 40
0
 40
0
 40
0
 40
0
 40
1
 40
1
 40
1
 40
1
 10
261.202500
 20
49.260000
 30
0.0
 10
261.202500
 20
55.785000
 30
0.0
 10
263.557500
 20
59.047500
 30
0.0
 10
268.275000
 20
59.047500
 30
0.0
  0
SPLINE
  5
1d0
100
AcDbEntity
  8
0
 62
7
100
AcDbSpline
 70
8
 71
3
 72
8
 73
4
 74
0
 40
0
 40
0
 40
0
 40
0
 40
1
 40
1
 40
1
 40
1
 10
268.275000
 20
59.047500
 30
0.0
 10
270.682500
 20
59.047500
 30
0.0
 10
272.422500
 20
58.282500
 30
0.0
 10
273.487500
 20
56.760000
 30
0.0
  0
SPLINE
  5
1d1
100
AcDbEntity
  8
0
 62
7
100
AcDbSpline
 70
8
 71
3
 72
8
 73
4
 74
0
 40
0
 40
0
 40
0
 40
0
 40
1
 40
1
 40
1
 40
1
 10
273.487500
 20
56.760000
 30
0.0
 10
274.552500
 20
55.237500
 30
0.0
 10
275.137500
 20
52.980000
 30
0.0
 10
275.242500
 20
50.002500
 30
0.0
  0
SPLINE
  5
1d2
100
AcDbEntity
  8
0
 62
7
100
AcDbSpline
 70
8
 71
3
 72
8
 73
4
 74
0
 40
0
 40
0
 40
0
 40
0
 40
1
 40
1
 40
1
 40
1
 10
275.242500
 20
50.002500
 30
0.0
 10
276.982500
 20
52.980000
 30
0.0
 10
278.760000
 20
55.230000
 30
0.0
 10
280.590000
 20
56.760000
 30
0.0
  0
SPLINE
  5
1d3
100
AcDbEntity
  8
0
 62
7
100
AcDbSpline
 70
8
 71
3
 72
8
 73
4
 74
0
 40
0
 40
0
 40
0
 40
0
 40
1
 40
1
 40
1
 40
1
 10
280.590000
 20
56.760000
 30
0.0
 10
282.420000
 20
58.282500
 30
0.0
 10
284.857500
 20
59.047500
 30
0.0
 10
287.902500
 20
59.047500
 30
0.0
  0
SPLINE
  5
1d4
100
AcDbEntity
  8
0
 62
7
100
AcDbSpline
 70
8
 71
3
 72
8
 73
4
 74
0
 40
0
 40
0
 40
0
 40
0
 40
1
 40
1
 40
1
 40
1
 10
287.902500
 20
59.047500
 30
0.0
 10
290.947500
 20
59.047500
 30
0.0
 10
293.910000
 20
58.282500
 30
0.0
 10
296.782500
 20
56.760000
 30
0.0
  0
SPLINE
  5
1d5
100
AcDbEntity
  8
0
 62
7
100
AcDbSpline
 70
8
 71
3
 72
8
 73
4
 74
0
 40
0
 40
0
 40
0
 40
0
 40
1
 40
1
 40
1
 40
1
 10
296.782500
 20
56.760000
 30
0.0
 10
299.655000
 20
55.237500
 30
0.0
 10
301.095000
 20
53.212500
 30
0.0
 10
301.095000
 20
50.692500
 30
0.0
  0
SPLINE
  5
1d6
100
AcDbEntity
  8
0
 62
7
100
AcDbSpline
 70
8
 71
3
 72
8
 73
4
 74
0
 40
0
 40
0
 40
0
 40
0
 40
1
 40
1
 40
1
 40
1
 10
301.095000
 20
50.692500
 30
0.0
 10
301.095000
 20
48.922500
 30
0.0
 10
300.480000
 20
47.452500
 30
0.0
 10
299.257500
 20
46.305000
 30
0.0
  0
SPLINE
  5
1d7
100
AcDbEntity
  8
0
 62
7
100
AcDbSpline
 70
8
 71
3
 72
8
 73
4
 74
0
 40
0
 40
0
 40
0
 40
0
 40
1
 40
1
 40
1
 40
1
 10
299.257500
 20
46.305000
 30
0.0
 10
298.035000
 20
45.157500
 30
0.0
 10
296.715000
 20
44.580000
 30
0.0
 10
295.297500
 20
44.580000
 30
0.0
  0
SPLINE
  5
1d8
100
AcDbEntity
  8
0
 62
7
100
AcDbSpline
 70
8
 71
3
 72
8
 73
4
 74
0
 40
0
 40
0
 40
0
 40
0
 40
1
 40
1
 40
1
 40
1
 10
295.297500
 20
44.580000
 30
0.0
 10
294.765000
 20
44.580000
 30
0.0
 10
293.482500
 20
44.910000
 30
0.0
 10
291.442500
 20
45.562500
 30
0.0
  0
SPLINE
  5
1d9
100
AcDbEntity
  8
0
 62
7
100
AcDbSpline
 70
8
 71
3
 72
8
 73
4
 74
0
 40
0
 40
0
 40
0
 40
0
 40
1
 40
1
 40
1
 40
1
 10
291.442500
 20
45.562500
 30
0.0
 10
289.402500
 20
46.215000
 30
0.0
 10
287.602500
 20
46.545000
 30
0.0
 10
286.042500
 20
46.545000
 30
0.0
  0
SPLINE
  5
1da
100
AcDbEntity
  8
0
 62
7
100
AcDbSpline
 70
8
 71
3
 72
8
 73
4
 74
0
 40
0
 40
0
 40
0
 40
0
 40
1
 40
1
 40
1
 40
1
 10
286.042500
 20
46.545000
 30
0.0
 10
283.912500
 20
46.545000
 30
0.0
 10
282.172500
 20
45.982500
 30
0.0
 10
280.830000
 20
44.872500
 30
0.0
  0
SPLINE
  5
1db
100
AcDbEntity
  8
0
 62
7
100
AcDbSpline
 70
8
 71
3
 72
8
 73
4
 74
0
 40
0
 40
0
 40
0
 40
0
 40
1
 40
1
 40
1
 40
1
 10
280.830000
 20
44.872500
 30
0.0
 10
279.480000
 20
43.755000
 30
0.0
 10
278.437500
 20
42.097500
 30
0.0
 10
277.695000
 20
39.900000
 30
0.0
  0
SPLINE
  5
1dc
100
AcDbEntity
  8
0
 62
7
100
AcDbSpline
 70
8
 71
3
 72
8
 73
4
 74
0
 40
0
 40
0
 40
0
 40
0
 40
1
 40
1
 40
1
 40
1
 10
277.695000
 20
39.900000
 30
0.0
 10
276.952500
 20
37.702500
 30
0.0
 10
276.435000
 20
35.085000
 30
0.0
 10
276.150000
 20
32.055000
 30
0.0
  0
SPLINE
  5
1dd
100
AcDbEntity
  8
0
 62
7
100
AcDbSpline
 70
8
 71
3
 72
8
 73
4
 74
0
 40
0
 40
0
 40
0
 40
0
 40
1
 40
1
 40
1
 40
1
 10
276.150000
 20
32.055000
 30
0.0
 10
275.865000
 20
29.025000
 30
0.0
 10
275.722500
 20
25.327500
 30
0.0
 10
275.722500
 20
20.962500
 30
0.0
  0
LWPOLYLINE
  5
1de
100
AcDbEntity
  8
0
 62
7
100
AcDbPolyline
 90
2
 70
0
 10
261.202500
 20
8.835000
 30
0.0
 10
261.202500
 20
49.260000
 30
0.0
  0
SPLINE
  5
1df
100
AcDbEntity
  8
0
 62
7
100
AcDbSpline
 70
8
 71
3
 72
8
 73
4
 74
0
 40
0
 40
0
 40
0
 40
0
 40
1
 40
1
 40
1
 40
1
 10
343.860000
 20
8.190000
 30
0.0
 10
340.350000
 20
5.460000
 30
0.0
 10
336.952500
 20
3.412500
 30
0.0
 10
333.675000
 20
2.047500
 30
0.0
  0
SPLINE
  5
1e0
100
AcDbEntity
  8
0
 62
7
100
AcDbSpline
 70
8
 71
3
 72
8
 73
4
 74
0
 40
0
 40
0
 40
0
 40
0
 40
1
 40
1
 40
1
 40
1
 10
333.675000
 20
2.047500
 30
0.0
 10
330.397500
 20
0.682500
 30
0.0
 10
326.715000
 20
0.000000
 30
0.0
 10
322.635000
 20
0.000000
 30
0.0
  0
SPLINE
  5
1e1
100
AcDbEntity
  8
0
 62
7
100
AcDbSpline
 70
8
 71
3
 72
8
 73
4
 74
0
 40
0
 40
0
 40
0
 40
0
 40
1
 40
1
 40
1
 40
1
 10
322.635000
 20
0.000000
 30
0.0
 10
318.915000
 20
0.000000
 30
0.0
 10
315.637500
 20
0.735000
 30
0.0
 10
312.817500
 20
2.205000
 30
0.0
  0
SPLINE
  5
1e2
100
AcDbEntity
  8
0
 62
7
100
AcDbSpline
 70
8
 71
3
 72
8
 73
4
 74
0
 40
0
 40
0
 40
0
 40
0
 40
1
 40
1
 40
1
 40
1
 10
312.817500
 20
2.205000
 30
0.0
 10
309.997500
 20
3.675000
 30
0.0
 10
307.830000
 20
5.670000
 30
0.0
 10
306.300000
 20
8.190000
 30
0.0
  0
SPLINE
  5
1e3
100
AcDbEntity
  8
0
 62
7
100
AcDbSpline
 70
8
 71
3
 72
8
 73
4
 74
0
 40
0
 40
0
 40
0
 40
0
 40
1
 40
1
 40
1
 40
1
 10
306.300000
 20
8.190000
 30
0.0
 10
304.777500
 20
10.710000
 30
0.0
 10
304.012500
 20
13.440000
 30
0.0
 10
304.012500
 20
16.380000
 30
0.0
  0
SPLINE
  5
1e4
100
AcDbEntity
  8
0
 62
7
100
AcDbSpline
 70
8
 71
3
 72
8
 73
4
 74
0
 40
0
 40
0
 40
0
 40
0
 40
1
 40
1
 40
1
 40
1
 10
304.012500
 20
16.380000
 30
0.0
 10
304.012500
 20
20.355000
 30
0.0
 10
305.272500
 20
23.737500
 30
0.0
 10
307.792500
 20
26.542500
 30
0.0
  0
SPLINE
  5
1e5
100
AcDbEntity
  8
0
 62
7
100
AcDbSpline
 70
8
 71
3
 72
8
 73
4
 74
0
 40
0
 40
0
 40
0
 40
0
 40
1
 40
1
 40
1
 40
1
 10
307.792500
 20
26.542500
 30
0.0
 10
310.312500
 20
29.340000
 30
0.0
 10
313.770000
 20
31.222500
 30
0.0
 10
318.165000
 20
32.182500
 30
0.0
  0
SPLINE
  5
1e6
100
AcDbEntity
  8
0
 62
7
100
AcDbSpline
 70
8
 71
3
 72
8
 73
4
 74
0
 40
0
 40
0
 40
0
 40
0
 40
1
 40
1
 40
1
 40
1
 10
318.165000
 20
32.182500
 30
0.0
 10
319.087500
 20
32.392500
 30
0.0
 10
321.375000
 20
32.872500
 30
0.0
 10
325.027500
 20
33.622500
 30
0.0
  0
SPLINE
  5
1e7
100
AcDbEntity
  8
0
 62
7
100
AcDbSpline
 70
8
 71
3
 72
8
 73
4
 74
0
 40
0
 40
0
 40
0
 40
0
 40
1
 40
1
 40
1
 40
1
 10
325.027500
 20
33.622500
 30
0.0
 10
328.680000
 20
34.365000
 30
0.0
 10
331.807500
 20
35.047500
 30
0.0
 10
334.417500
 20
35.670000
 30
0.0
  0
SPLINE
  5
1e8
100
AcDbEntity
  8
0
 62
7
100
AcDbSpline
 70
8
 71
3
 72
8
 73
4
 74
0
 40
0
 40
0
 40
0
 40
0
 40
1
 40
1
 40
1
 40
1
 10
334.417500
 20
35.670000
 30
0.0
 10
337.027500
 20
36.292500
 30
0.0
 10
339.855000
 20
37.042500
 30
0.0
 10
342.900000
 20
37.935000
 30
0.0
  0
SPLINE
  5
1e9
100
AcDbEntity
  8
0
 62
7
100
AcDbSpline
 70
8
 71
3
 72
8
 73
4
 74
0
 40
0
 40
0
 40
0
 40
0
 40
1
 40
1
 40
1
 40
1
 10
342.900000
 20
37.935000
 30
0.0
 10
342.720000
 20
41.767500
 30
0.0
 10
341.947500
 20
44.572500
 30
0.0
 10
340.582500
 20
46.365000
 30
0.0
  0
SPLINE
  5
1ea
100
AcDbEntity
  8
0
 62
7
100
AcDbSpline
 70
8
 71
3
 72
8
 73
4
 74
0
 40
0
 40
0
 40
0
 40
0
 40
1
 40
1
 40
1
 40
1
 10
340.582500
 20
46.365000
 30
0.0
 10
339.217500
 20
48.157500
 30
0.0
 10
336.390000
 20
49.050000
 30
0.0
 10
332.100000
 20
49.050000
 30
0.0
  0
SPLINE
  5
1eb
100
AcDbEntity
  8
0
 62
7
100
AcDbSpline
 70
8
 71
3
 72
8
 73
4
 74
0
 40
0
 40
0
 40
0
 40
0
 40
1
 40
1
 40
1
 40
1
 10
332.100000
 20
49.050000
 30
0.0
 10
328.410000
 20
49.050000
 30
0.0
 10
325.635000
 20
48.532500
 30
0.0
 10
323.775000
 20
47.505000
 30
0.0
  0
SPLINE
  5
1ec
100
AcDbEntity
  8
0
 62
7
100
AcDbSpline
 70
8
 71
3
 72
8
 73
4
 74
0
 40
0
 40
0
 40
0
 40
0
 40
1
 40
1
 40
1
 40
1
 10
323.775000
 20
47.505000
 30
0.0
 10
321.915000
 20
46.477500
 30
0.0
 10
320.317500
 20
44.932500
 30
0.0
 10
318.990000
 20
42.877500
 30
0.0
  0
SPLINE
  5
1ed
100
AcDbEntity
  8
0
 62
7
100
AcDbSpline
 70
8
 71
3
 72
8
 73
4
 74
0
 40
0
 40
0
 40
0
 40
0
 40
1
 40
1
 40
1
 40
1
 10
318.990000
 20
42.877500
 30
0.0
 10
317.662500
 20
40.822500
 30
0.0
 10
316.717500
 20
39.465000
 30
0.0
 10
316.170000
 20
38.812500
 30
0.0
  0
SPLINE
  5
1ee
100
AcDbEntity
  8
0
 62
7
100
AcDbSpline
 70
8
 71
3
 72
8
 73
4
 74
0
 40
0
 40
0
 40
0
 40
0
 40
1
 40
1
 40
1
 40
1
 10
316.170000
 20
38.812500
 30
0.0
 10
315.622500
 20
38.152500
 30
0.0
 10
314.445000
 20
37.830000
 30
0.0
 10
312.630000
 20
37.830000
 30
0.0
  0
SPLINE
  5
1ef
100
AcDbEntity
  8
0
 62
7
100
AcDbSpline
 70
8
 71
3
 72
8
 73
4
 74
0
 40
0
 40
0
 40
0
 40
0
 40
1
 40
1
 40
1
 40
1
 10
312.630000
 20
37.830000
 30
0.0
 10
310.995000
 20
37.830000
 30
0.0
 10
309.592500
 20
38.355000
 30
0.0
 10
308.400000
 20
39.397500
 30
0.0
  0
SPLINE
  5
1f0
100
AcDbEntity
  8
0
 62
7
100
AcDbSpline
 70
8
 71
3
 72
8
 73
4
 74
0
 40
0
 40
0
 40
0
 40
0
 40
1
 40
1
 40
1
 40
1
 10
308.400000
 20
39.397500
 30
0.0
 10
307.207500
 20
40.440000
 30
0.0
 10
306.615000
 20
41.782500
 30
0.0
 10
306.615000
 20
43.417500
 30
0.0
  0
SPLINE
  5
1f1
100
AcDbEntity
  8
0
 62
7
100
AcDbSpline
 70
8
 71
3
 72
8
 73
4
 74
0
 40
0
 40
0
 40
0
 40
0
 40
1
 40
1
 40
1
 40
1
 10
306.615000
 20
43.417500
 30
0.0
 10
306.615000
 20
45.967500
 30
0.0
 10
307.522500
 20
48.450000
 30
0.0
 10
309.330000
 20
50.865000
 30
0.0
  0
SPLINE
  5
1f2
100
AcDbEntity
  8
0
 62
7
100
AcDbSpline
 70
8
 71
3
 72
8
 73
4
 74
0
 40
0
 40
0
 40
0
 40
0
 40
1
 40
1
 40
1
 40
1
 10
309.330000
 20
50.865000
 30
0.0
 10
311.137500
 20
53.272500
 30
0.0
 10
313.957500
 20
55.260000
 30
0.0
 10
317.790000
 20
56.820000
 30
0.0
  0
SPLINE
  5
1f3
100
AcDbEntity
  8
0
 62
7
100
AcDbSpline
 70
8
 71
3
 72
8
 73
4
 74
0
 40
0
 40
0
 40
0
 40
0
 40
1
 40
1
 40
1
 40
1
 10
317.790000
 20
56.820000
 30
0.0
 10
321.622500
 20
58.380000
 30
0.0
 10
326.392500
 20
59.160000
 30
0.0
 10
332.100000
 20
59.160000
 30
0.0
  0
SPLINE
  5
1f4
100
AcDbEntity
  8
0
 62
7
100
AcDbSpline
 70
8
 71
3
 72
8
 73
4
 74
0
 40
0
 40
0
 40
0
 40
0
 40
1
 40
1
 40
1
 40
1
 10
332.100000
 20
59.160000
 30
0.0
 10
338.482500
 20
59.160000
 30
0.0
 10
343.500000
 20
58.402500
 30
0.0
 10
347.152500
 20
56.902500
 30
0.0
  0
SPLINE
  5
1f5
100
AcDbEntity
  8
0
 62
7
100
AcDbSpline
 70
8
 71
3
 72
8
 73
4
 74
0
 40
0
 40
0
 40
0
 40
0
 40
1
 40
1
 40
1
 40
1
 10
347.152500
 20
56.902500
 30
0.0
 10
350.805000
 20
55.395000
 30
0.0
 10
353.385000
 20
53.010000
 30
0.0
 10
354.892500
 20
49.747500
 30
0.0
  0
SPLINE
  5
1f6
100
AcDbEntity
  8
0
 62
7
100
AcDbSpline
 70
8
 71
3
 72
8
 73
4
 74
0
 40
0
 40
0
 40
0
 40
0
 40
1
 40
1
 40
1
 40
1
 10
354.892500
 20
49.747500
 30
0.0
 10
356.400000
 20
46.485000
 30
0.0
 10
357.157500
 20
42.157500
 30
0.0
 10
357.157500
 20
36.765000
 30
0.0
  0
SPLINE
  5
1f7
100
AcDbEntity
  8
0
 62
7
100
AcDbSpline
 70
8
 71
3
 72
8
 73
4
 74
0
 40
0
 40
0
 40
0
 40
0
 40
1
 40
1
 40
1
 40
1
 10
357.157500
 20
36.765000
 30
0.0
 10
357.157500
 20
33.360000
 30
0.0
 10
357.150000
 20
30.472500
 30
0.0
 10
357.127500
 20
28.095000
 30
0.0
  0
SPLINE
  5
1f8
100
AcDbEntity
  8
0
 62
7
100
AcDbSpline
 70
8
 71
3
 72
8
 73
4
 74
0
 40
0
 40
0
 40
0
 40
0
 40
1
 40
1
 40
1
 40
1
 10
357.127500
 20
28.095000
 30
0.0
 10
357.112500
 20
25.717500
 30
0.0
 10
357.082500
 20
23.077500
 30
0.0
 10
357.045000
 20
20.167500
 30
0.0
  0
SPLINE
  5
1f9
100
AcDbEntity
  8
0
 62
7
100
AcDbSpline
 70
8
 71
3
 72
8
 73
4
 74
0
 40
0
 40
0
 40
0
 40
0
 40
1
 40
1
 40
1
 40
1
 10
357.045000
 20
20.167500
 30
0.0
 10
357.045000
 20
17.437500
 30
0.0
 10
357.495000
 20
14.587500
 30
0.0
 10
358.402500
 20
11.632500
 30
0.0
  0
SPLINE
  5
1fa
100
AcDbEntity
  8
0
 62
7
100
AcDbSpline
 70
8
 71
3
 72
8
 73
4
 74
0
 40
0
 40
0
 40
0
 40
0
 40
1
 40
1
 40
1
 40
1
 10
358.402500
 20
11.632500
 30
0.0
 10
359.310000
 20
8.677500
 30
0.0
 10
359.760000
 20
6.765000
 30
0.0
 10
359.760000
 20
5.917500
 30
0.0
  0
SPLINE
  5
1fb
100
AcDbEntity
  8
0
 62
7
100
AcDbSpline
 70
8
 71
3
 72
8
 73
4
 74
0
 40
0
 40
0
 40
0
 40
0
 40
1
 40
1
 40
1
 40
1
 10
359.760000
 20
5.917500
 30
0.0
 10
359.760000
 20
4.425000
 30
0.0
 10
359.062500
 20
3.075000
 30
0.0
 10
357.660000
 20
1.845000
 30
0.0
  0
SPLINE
  5
1fc
100
AcDbEntity
  8
0
 62
7
100
AcDbSpline
 70
8
 71
3
 72
8
 73
4
 74
0
 40
0
 40
0
 40
0
 40
0
 40
1
 40
1
 40
1
 40
1
 10
357.660000
 20
1.845000
 30
0.0
 10
356.257500
 20
0.622500
 30
0.0
 10
354.675000
 20
0.007500
 30
0.0
 10
352.897500
 20
0.007500
 30
0.0
  0
SPLINE
  5
1fd
100
AcDbEntity
  8
0
 62
7
100
AcDbSpline
 70
8
 71
3
 72
8
 73
4
 74
0
 40
0
 40
0
 40
0
 40
0
 40
1
 40
1
 40
1
 40
1
 10
352.897500
 20
0.007500
 30
0.0
 10
351.405000
 20
0.007500
 30
0.0
 10
349.935000
 20
0.705000
 30
0.0
 10
348.480000
 20
2.107500
 30
0.0
  0
SPLINE
  5
1fe
100
AcDbEntity
  8
0
 62
7
100
AcDbSpline
 70
8
 71
3
 72
8
 73
4
 74
0
 40
0
 40
0
 40
0
 40
0
 40
1
 40
1
 40
1
 40
1
 10
348.480000
 20
2.107500
 30
0.0
 10
347.025000
 20
3.510000
 30
0.0
 10
345.480000
 20
5.535000
 30
0.0
 10
343.852500
 20
8.197500
 30
0.0
  0
LWPOLYLINE
  5
1ff
100
AcDbEntity
  8
0
 62
7
100
AcDbPolyline
 90
2
 70
0
 10
275.722500
 20
20.962500
 30
0.0
 10
275.730000
 20
20.962500
 30
0.0
  0
SPLINE
  5
200
100
AcDbEntity
  8
0
 62
7
100
AcDbSpline
 70
8
 71
3
 72
8
 73
4
 74
0
 40
0
 40
0
 40
0
 40
0
 40
1
 40
1
 40
1
 40
1
 10
342.900000
 20
29.205000
 30
0.0
 10
340.770000
 20
28.425000
 30
0.0
 10
337.680000
 20
27.600000
 30
0.0
 10
333.615000
 20
26.730000
 30
0.0
  0
SPLINE
  5
201
100
AcDbEntity
  8
0
 62
7
100
AcDbSpline
 70
8
 71
3
 72
8
 73
4
 74
0
 40
0
 40
0
 40
0
 40
0
 40
1
 40
1
 40
1
 40
1
 10
333.615000
 20
26.730000
 30
0.0
 10
329.557500
 20
25.860000
 30
0.0
 10
326.745000
 20
25.222500
 30
0.0
 10
325.185000
 20
24.817500
 30
0.0
  0
SPLINE
  5
202
100
AcDbEntity
  8
0
 62
7
100
AcDbSpline
 70
8
 71
3
 72
8
 73
4
 74
0
 40
0
 40
0
 40
0
 40
0
 40
1
 40
1
 40
1
 40
1
 10
325.185000
 20
24.817500
 30
0.0
 10
323.625000
 20
24.412500
 30
0.0
 10
322.132500
 20
23.610000
 30
0.0
 10
320.715000
 20
22.425000
 30
0.0
  0
SPLINE
  5
203
100
AcDbEntity
  8
0
 62
7
100
AcDbSpline
 70
8
 71
3
 72
8
 73
4
 74
0
 40
0
 40
0
 40
0
 40
0
 40
1
 40
1
 40
1
 40
1
 10
320.715000
 20
22.425000
 30
0.0
 10
319.297500
 20
21.232500
 30
0.0
 10
318.585000
 20
19.575000
 30
0.0
 10
318.585000
 20
17.452500
 30
0.0
  0
SPLINE
  5
204
100
AcDbEntity
  8
0
 62
7
100
AcDbSpline
 70
8
 71
3
 72
8
 73
4
 74
0
 40
0
 40
0
 40
0
 40
0
 40
1
 40
1
 40
1
 40
1
 10
318.585000
 20
17.452500
 30
0.0
 10
318.585000
 20
15.330000
 30
0.0
 10
319.417500
 20
13.387500
 30
0.0
 10
321.082500
 20
11.842500
 30
0.0
  0
SPLINE
  5
205
100
AcDbEntity
  8
0
 62
7
100
AcDbSpline
 70
8
 71
3
 72
8
 73
4
 74
0
 40
0
 40
0
 40
0
 40
0
 40
1
 40
1
 40
1
 40
1
 10
321.082500
 20
11.842500
 30
0.0
 10
322.747500
 20
10.305000
 30
0.0
 10
324.930000
 20
9.532500
 30
0.0
 10
327.622500
 20
9.532500
 30
0.0
  0
SPLINE
  5
206
100
AcDbEntity
  8
0
 62
7
100
AcDbSpline
 70
8
 71
3
 72
8
 73
4
 74
0
 40
0
 40
0
 40
0
 40
0
 40
1
 40
1
 40
1
 40
1
 10
327.622500
 20
9.532500
 30
0.0
 10
330.495000
 20
9.532500
 30
0.0
 10
333.142500
 20
10.162500
 30
0.0
 10
335.572500
 20
11.422500
 30
0.0
  0
SPLINE
  5
207
100
AcDbEntity
  8
0
 62
7
100
AcDbSpline
 70
8
 71
3
 72
8
 73
4
 74
0
 40
0
 40
0
 40
0
 40
0
 40
1
 40
1
 40
1
 40
1
 10
335.572500
 20
11.422500
 30
0.0
 10
338.002500
 20
12.682500
 30
0.0
 10
339.787500
 20
14.302500
 30
0.0
 10
340.920000
 20
16.290000
 30
0.0
  0
SPLINE
  5
208
100
AcDbEntity
  8
0
 62
7
100
AcDbSpline
 70
8
 71
3
 72
8
 73
4
 74
0
 40
0
 40
0
 40
0
 40
0
 40
1
 40
1
 40
1
 40
1
 10
340.920000
 20
16.290000
 30
0.0
 10
342.232500
 20
18.487500
 30
0.0
 10
342.885000
 20
22.102500
 30
0.0
 10
342.885000
 20
27.142500
 30
0.0
  0
LWPOLYLINE
  5
209
100
AcDbEntity
  8
0
 62
7
100
AcDbPolyline
 90
2
 70
0
 10
343.852500
 20
8.197500
 30
0.0
 10
343.860000
 20
8.190000
 30
0.0
  0
LWPOLYLINE
  5
20a
100
AcDbEntity
  8
0
 62
7
100
AcDbPolyline
 90
3
 70
0
 10
342.885000
 20
27.142500
 30
0.0
 10
342.885000
 20
29.220000
 30
0.0
 10
342.900000
 20
29.205000
 30
0.0
  0
ENDSEC
  0
SECTION
  2
OBJECTS
  0
DICTIONARY
  5
C
330
0
100
AcDbDictionary
  3
ACAD_GROUP
350
D
  3
ACAD_MLINESTYLE
350
17
  0
DICTIONARY
  5
D
330
C
100
AcDbDictionary
  0
DICTIONARY
  5
1A
330
C
100
AcDbDictionary
  0
DICTIONARY
  5
17
330
C
100
AcDbDictionary
  3
STANDARD
350
18
  0
DICTIONARY
  5
19
330
C
100
AcDbDictionary
  0
ENDSEC
  0
EOF
